<svg xmlns="http://www.w3.org/2000/svg" xmlns:xlink="http://www.w3.org/1999/xlink" width="245" zoomAndPan="magnify" viewBox="0 0 183.75 88.499997" height="118" preserveAspectRatio="xMidYMid meet" version="1.0"><defs><g/><clipPath id="id1"><path d="M 74 0 L 131 0 L 131 30.617188 L 74 30.617188 Z M 74 0 " clip-rule="nonzero"/></clipPath><clipPath id="id2"><path d="M 22.429688 72.050781 L 160.585938 72.050781 L 160.585938 73.542969 L 22.429688 73.542969 Z M 22.429688 72.050781 " clip-rule="nonzero"/></clipPath></defs><g fill="#ff914d" fill-opacity="1"><g transform="translate(1.190243, 66.501996)"><g><path d="M 2.625 -12.8125 L 2.625 -18.859375 C 2.625 -22.835938 3.785156 -26.054688 6.109375 -28.515625 C 8.429688 -30.984375 11.898438 -32.21875 16.515625 -32.21875 C 19.421875 -32.21875 21.859375 -31.710938 23.828125 -30.703125 C 25.796875 -29.691406 26.78125 -28.5625 26.78125 -27.3125 C 26.78125 -26.550781 26.5 -25.789062 25.9375 -25.03125 C 25.375 -24.269531 24.710938 -23.890625 23.953125 -23.890625 C 23.734375 -23.890625 22.941406 -24.234375 21.578125 -24.921875 C 20.210938 -25.617188 18.703125 -25.96875 17.046875 -25.96875 C 12.117188 -25.96875 9.65625 -23.597656 9.65625 -18.859375 L 9.65625 -12.8125 C 9.65625 -8.070312 12.140625 -5.703125 17.109375 -5.703125 C 18.804688 -5.703125 20.335938 -6.070312 21.703125 -6.8125 C 23.066406 -7.550781 23.882812 -7.921875 24.15625 -7.921875 C 25.050781 -7.921875 25.773438 -7.5625 26.328125 -6.84375 C 26.890625 -6.125 27.171875 -5.363281 27.171875 -4.5625 C 27.171875 -3.3125 26.140625 -2.148438 24.078125 -1.078125 C 22.023438 -0.00390625 19.523438 0.53125 16.578125 0.53125 C 11.921875 0.53125 8.429688 -0.6875 6.109375 -3.125 C 3.785156 -5.5625 2.625 -8.789062 2.625 -12.8125 Z M 2.625 -12.8125 "/></g></g></g><g fill="#ff914d" fill-opacity="1"><g transform="translate(29.774901, 66.501996)"><g><path d="M 3.484375 -14.5625 L 3.484375 -34.09375 C 3.484375 -39.238281 4.847656 -43.019531 7.578125 -45.4375 C 10.304688 -47.851562 13.953125 -49.0625 18.515625 -49.0625 C 23.085938 -49.0625 26.75 -47.851562 29.5 -45.4375 C 32.25 -43.019531 33.625 -39.238281 33.625 -34.09375 L 33.625 -14.5625 C 33.625 -9.414062 32.25 -5.632812 29.5 -3.21875 C 26.75 -0.800781 23.085938 0.40625 18.515625 0.40625 C 13.953125 0.40625 10.304688 -0.800781 7.578125 -3.21875 C 4.847656 -5.632812 3.484375 -9.414062 3.484375 -14.5625 Z M 10.609375 -14.5625 C 10.609375 -8.789062 13.242188 -5.90625 18.515625 -5.90625 C 21.066406 -5.90625 23.035156 -6.617188 24.421875 -8.046875 C 25.816406 -9.484375 26.515625 -11.65625 26.515625 -14.5625 L 26.515625 -34.09375 C 26.515625 -37 25.816406 -39.164062 24.421875 -40.59375 C 23.035156 -42.03125 21.066406 -42.75 18.515625 -42.75 C 13.242188 -42.75 10.609375 -39.863281 10.609375 -34.09375 Z M 16.5 -22.203125 C 15.96875 -22.742188 15.703125 -23.4375 15.703125 -24.28125 C 15.703125 -25.132812 15.96875 -25.816406 16.5 -26.328125 C 17.039062 -26.847656 17.734375 -27.109375 18.578125 -27.109375 C 19.429688 -27.109375 20.113281 -26.847656 20.625 -26.328125 C 21.144531 -25.816406 21.40625 -25.132812 21.40625 -24.28125 C 21.40625 -23.4375 21.144531 -22.742188 20.625 -22.203125 C 20.113281 -21.671875 19.429688 -21.40625 18.578125 -21.40625 C 17.734375 -21.40625 17.039062 -21.671875 16.5 -22.203125 Z M 16.5 -22.203125 "/></g></g></g><g fill="#ff914d" fill-opacity="1"><g transform="translate(66.74707, 66.501996)"><g><path d="M 3.421875 -12.6875 L 3.421875 -29.46875 C 3.421875 -30.09375 3.773438 -30.640625 4.484375 -31.109375 C 5.203125 -31.578125 6.03125 -31.8125 6.96875 -31.8125 C 7.914062 -31.8125 8.734375 -31.578125 9.421875 -31.109375 C 10.117188 -30.640625 10.46875 -30.09375 10.46875 -29.46875 L 10.46875 -12.6875 C 10.46875 -10.894531 11.148438 -9.28125 12.515625 -7.84375 C 13.878906 -6.414062 15.476562 -5.703125 17.3125 -5.703125 C 19.1875 -5.703125 20.796875 -6.40625 22.140625 -7.8125 C 23.484375 -9.226562 24.15625 -10.851562 24.15625 -12.6875 L 24.15625 -29.53125 C 24.15625 -30.15625 24.5 -30.691406 25.1875 -31.140625 C 25.882812 -31.585938 26.722656 -31.8125 27.703125 -31.8125 C 28.691406 -31.8125 29.507812 -31.585938 30.15625 -31.140625 C 30.8125 -30.691406 31.140625 -30.15625 31.140625 -29.53125 L 31.140625 -12.6875 C 31.140625 -9.144531 29.773438 -6.054688 27.046875 -3.421875 C 24.316406 -0.785156 21.070312 0.53125 17.3125 0.53125 C 13.550781 0.53125 10.296875 -0.785156 7.546875 -3.421875 C 4.796875 -6.054688 3.421875 -9.144531 3.421875 -12.6875 Z M 3.421875 -12.6875 "/></g></g></g><g fill="#ff914d" fill-opacity="1"><g transform="translate(101.303635, 66.501996)"><g><path d="M 3.6875 -2.34375 L 3.6875 -29.53125 C 3.6875 -30.195312 4.007812 -30.742188 4.65625 -31.171875 C 5.3125 -31.597656 6.15625 -31.8125 7.1875 -31.8125 C 8.070312 -31.8125 8.816406 -31.597656 9.421875 -31.171875 C 10.023438 -30.742188 10.328125 -30.195312 10.328125 -29.53125 L 10.328125 -27.109375 C 11.046875 -28.546875 12.195312 -29.753906 13.78125 -30.734375 C 15.375 -31.722656 17.222656 -32.21875 19.328125 -32.21875 C 22.503906 -32.21875 25.242188 -30.914062 27.546875 -28.3125 C 29.847656 -25.71875 31 -22.609375 31 -18.984375 L 31 -2.34375 C 31 -1.632812 30.648438 -1.066406 29.953125 -0.640625 C 29.265625 -0.210938 28.429688 0 27.453125 0 C 26.554688 0 25.75 -0.210938 25.03125 -0.640625 C 24.3125 -1.066406 23.953125 -1.632812 23.953125 -2.34375 L 23.953125 -18.984375 C 23.953125 -20.773438 23.28125 -22.382812 21.9375 -23.8125 C 20.601562 -25.25 19.019531 -25.96875 17.1875 -25.96875 C 15.476562 -25.96875 13.972656 -25.328125 12.671875 -24.046875 C 11.378906 -22.773438 10.734375 -21.085938 10.734375 -18.984375 L 10.734375 -2.34375 C 10.734375 -1.757812 10.375 -1.222656 9.65625 -0.734375 C 8.945312 -0.242188 8.125 0 7.1875 0 C 6.195312 0 5.363281 -0.242188 4.6875 -0.734375 C 4.019531 -1.222656 3.6875 -1.757812 3.6875 -2.34375 Z M 3.6875 -2.34375 "/></g></g></g><g fill="#ff914d" fill-opacity="1"><g transform="translate(135.726003, 66.501996)"><g><path d="M 3.625 -10.46875 L 3.625 -44.09375 C 3.625 -44.71875 3.976562 -45.253906 4.6875 -45.703125 C 5.40625 -46.148438 6.210938 -46.375 7.109375 -46.375 C 8.003906 -46.375 8.820312 -46.148438 9.5625 -45.703125 C 10.300781 -45.253906 10.671875 -44.71875 10.671875 -44.09375 L 10.671875 -31.8125 L 18.859375 -31.8125 C 19.441406 -31.8125 19.910156 -31.550781 20.265625 -31.03125 C 20.617188 -30.519531 20.796875 -29.90625 20.796875 -29.1875 C 20.796875 -28.476562 20.617188 -27.863281 20.265625 -27.34375 C 19.910156 -26.832031 19.441406 -26.578125 18.859375 -26.578125 L 10.671875 -26.578125 L 10.671875 -10.46875 C 10.671875 -8.851562 11.015625 -7.710938 11.703125 -7.046875 C 12.398438 -6.378906 13.625 -6.046875 15.375 -6.046875 L 17.71875 -6.046875 C 18.65625 -6.046875 19.390625 -5.753906 19.921875 -5.171875 C 20.460938 -4.585938 20.734375 -3.867188 20.734375 -3.015625 C 20.734375 -2.171875 20.460938 -1.457031 19.921875 -0.875 C 19.390625 -0.289062 18.65625 0 17.71875 0 L 15.375 0 C 7.539062 0 3.625 -3.488281 3.625 -10.46875 Z M 3.625 -10.46875 "/></g></g></g><g fill="#ff914d" fill-opacity="1"><g transform="translate(157.801944, 66.501996)"><g><path d="M 3.6875 -2.34375 L 3.6875 -29.53125 C 3.6875 -30.195312 4.007812 -30.742188 4.65625 -31.171875 C 5.3125 -31.597656 6.128906 -31.8125 7.109375 -31.8125 C 8.003906 -31.8125 8.765625 -31.597656 9.390625 -31.171875 C 10.015625 -30.742188 10.328125 -30.195312 10.328125 -29.53125 L 10.328125 -26.578125 C 11.085938 -28.140625 12.238281 -29.46875 13.78125 -30.5625 C 15.332031 -31.664062 17.023438 -32.21875 18.859375 -32.21875 L 21 -32.21875 C 21.71875 -32.21875 22.34375 -31.914062 22.875 -31.3125 C 23.414062 -30.707031 23.6875 -29.976562 23.6875 -29.125 C 23.6875 -28.269531 23.414062 -27.53125 22.875 -26.90625 C 22.34375 -26.28125 21.71875 -25.96875 21 -25.96875 L 18.859375 -25.96875 C 16.710938 -25.96875 14.820312 -25.050781 13.1875 -23.21875 C 11.550781 -21.382812 10.734375 -19.015625 10.734375 -16.109375 L 10.734375 -2.34375 C 10.734375 -1.757812 10.375 -1.222656 9.65625 -0.734375 C 8.945312 -0.242188 8.097656 0 7.109375 0 C 6.128906 0 5.3125 -0.242188 4.65625 -0.734375 C 4.007812 -1.222656 3.6875 -1.757812 3.6875 -2.34375 Z M 3.6875 -2.34375 "/></g></g></g><g clip-path="url(#id1)"><path fill="#545454" d="M 126.828125 16.152344 C 124.839844 16.121094 122.832031 16.113281 120.8125 16.113281 C 118.910156 20.195312 117.226562 24.398438 115.789062 28.648438 C 115.125 30.617188 110.6875 30.535156 111.527344 28.054688 C 112.894531 24.011719 114.484375 20.039062 116.28125 16.164062 C 113.945312 16.207031 111.589844 16.277344 109.226562 16.371094 C 107.363281 20.375 105.722656 24.480469 104.324219 28.648438 C 103.664062 30.617188 99.226562 30.535156 100.066406 28.054688 C 101.378906 24.15625 102.90625 20.332031 104.621094 16.589844 C 102.242188 16.714844 99.84375 16.871094 97.449219 17.050781 C 95.710938 20.84375 94.1875 24.71875 92.851562 28.648438 C 92.1875 30.617188 87.75 30.535156 88.59375 28.054688 C 89.8125 24.449219 91.210938 20.90625 92.769531 17.433594 C 90.347656 17.644531 87.917969 17.882812 85.492188 18.144531 C 83.957031 21.582031 82.589844 25.09375 81.390625 28.648438 C 80.726562 30.617188 76.289062 30.535156 77.128906 28.054688 C 78.203125 24.886719 79.414062 21.75 80.746094 18.6875 C 79.75 18.800781 78.761719 18.925781 77.761719 19.0625 C 74.039062 19.539062 72.851562 15.300781 77.53125 14.703125 C 79.316406 14.476562 81.09375 14.257812 82.871094 14.058594 C 84.914062 9.859375 87.183594 5.773438 89.664062 1.824219 C 90.8125 0 94.914062 0.832031 93.410156 3.242188 C 91.316406 6.566406 89.390625 10.003906 87.636719 13.539062 C 90.066406 13.296875 92.496094 13.078125 94.902344 12.882812 C 96.796875 9.085938 98.878906 5.398438 101.128906 1.8125 C 102.273438 0 106.386719 0.832031 104.882812 3.242188 C 102.988281 6.253906 101.234375 9.367188 99.613281 12.546875 C 102 12.390625 104.386719 12.257812 106.753906 12.140625 C 108.542969 8.609375 110.496094 5.167969 112.613281 1.8125 C 113.746094 0 117.859375 0.832031 116.355469 3.242188 C 114.578125 6.066406 112.917969 8.984375 111.382812 11.964844 C 113.738281 11.890625 116.070312 11.828125 118.40625 11.808594 C 120.152344 8.398438 122.042969 5.066406 124.085938 1.824219 C 125.21875 0 129.332031 0.832031 127.816406 3.242188 C 126.070312 6.011719 124.453125 8.859375 122.949219 11.777344 C 124.726562 11.777344 126.492188 11.785156 128.25 11.816406 C 131.84375 11.878906 131.582031 16.226562 126.828125 16.152344 Z M 126.828125 16.152344 " fill-opacity="1" fill-rule="nonzero"/></g><g clip-path="url(#id2)"><path fill="#e52619" d="M 159.78125 72.074219 C 159.417969 72.074219 159.113281 72.269531 159 72.558594 L 24.042969 72.558594 C 23.933594 72.269531 23.625 72.074219 23.265625 72.074219 C 22.792969 72.074219 22.429688 72.414062 22.429688 72.796875 C 22.429688 73.183594 22.820312 73.519531 23.265625 73.519531 C 23.625 73.519531 23.933594 73.328125 24.042969 73.039062 L 158.972656 73.039062 C 159.085938 73.328125 159.390625 73.519531 159.753906 73.519531 C 160.226562 73.519531 160.585938 73.183594 160.585938 72.796875 C 160.585938 72.414062 160.226562 72.074219 159.78125 72.074219 Z M 159.78125 72.074219 " fill-opacity="1" fill-rule="nonzero"/></g><g fill="#545454" fill-opacity="1"><g transform="translate(34.981147, 84.236764)"><g><path d="M 5.5625 -1.28125 L 2.796875 -1.28125 L 2.375 0 L 0.09375 0 L 2.9375 -7.8125 L 5.4375 -7.8125 L 8.28125 0 L 5.984375 0 Z M 5.015625 -2.9375 L 4.171875 -5.46875 L 3.34375 -2.9375 Z M 5.015625 -2.9375 "/></g></g></g><g fill="#545454" fill-opacity="1"><g transform="translate(43.339325, 84.236764)"><g/></g></g><g fill="#545454" fill-opacity="1"><g transform="translate(45.453779, 84.236764)"><g><path d="M 0.359375 -3.921875 C 0.359375 -4.691406 0.515625 -5.375 0.828125 -5.96875 C 1.148438 -6.570312 1.609375 -7.039062 2.203125 -7.375 C 2.796875 -7.71875 3.476562 -7.890625 4.25 -7.890625 C 5.21875 -7.890625 6.035156 -7.628906 6.703125 -7.109375 C 7.367188 -6.585938 7.796875 -5.878906 7.984375 -4.984375 L 5.65625 -4.984375 C 5.507812 -5.273438 5.3125 -5.5 5.0625 -5.65625 C 4.820312 -5.8125 4.535156 -5.890625 4.203125 -5.890625 C 3.703125 -5.890625 3.300781 -5.707031 3 -5.34375 C 2.707031 -4.988281 2.5625 -4.515625 2.5625 -3.921875 C 2.5625 -3.316406 2.707031 -2.832031 3 -2.46875 C 3.300781 -2.113281 3.703125 -1.9375 4.203125 -1.9375 C 4.535156 -1.9375 4.820312 -2.015625 5.0625 -2.171875 C 5.3125 -2.328125 5.507812 -2.550781 5.65625 -2.84375 L 7.984375 -2.84375 C 7.796875 -1.945312 7.367188 -1.238281 6.703125 -0.71875 C 6.035156 -0.195312 5.21875 0.0625 4.25 0.0625 C 3.476562 0.0625 2.796875 -0.101562 2.203125 -0.4375 C 1.609375 -0.78125 1.148438 -1.253906 0.828125 -1.859375 C 0.515625 -2.460938 0.359375 -3.148438 0.359375 -3.921875 Z M 0.359375 -3.921875 "/></g></g></g><g fill="#545454" fill-opacity="1"><g transform="translate(53.845166, 84.236764)"><g><path d="M 3.515625 0.078125 C 2.890625 0.078125 2.332031 -0.0507812 1.84375 -0.3125 C 1.351562 -0.570312 0.96875 -0.941406 0.6875 -1.421875 C 0.40625 -1.898438 0.265625 -2.460938 0.265625 -3.109375 C 0.265625 -3.753906 0.40625 -4.316406 0.6875 -4.796875 C 0.976562 -5.273438 1.367188 -5.644531 1.859375 -5.90625 C 2.347656 -6.164062 2.898438 -6.296875 3.515625 -6.296875 C 4.140625 -6.296875 4.695312 -6.164062 5.1875 -5.90625 C 5.675781 -5.644531 6.0625 -5.273438 6.34375 -4.796875 C 6.632812 -4.316406 6.78125 -3.753906 6.78125 -3.109375 C 6.78125 -2.472656 6.632812 -1.910156 6.34375 -1.421875 C 6.0625 -0.941406 5.671875 -0.570312 5.171875 -0.3125 C 4.679688 -0.0507812 4.128906 0.078125 3.515625 0.078125 Z M 3.515625 -1.8125 C 3.816406 -1.8125 4.066406 -1.921875 4.265625 -2.140625 C 4.472656 -2.367188 4.578125 -2.691406 4.578125 -3.109375 C 4.578125 -3.535156 4.472656 -3.859375 4.265625 -4.078125 C 4.066406 -4.296875 3.816406 -4.40625 3.515625 -4.40625 C 3.222656 -4.40625 2.976562 -4.296875 2.78125 -4.078125 C 2.582031 -3.859375 2.484375 -3.535156 2.484375 -3.109375 C 2.484375 -2.679688 2.578125 -2.359375 2.765625 -2.140625 C 2.960938 -1.921875 3.210938 -1.8125 3.515625 -1.8125 Z M 3.515625 -1.8125 "/></g></g></g><g fill="#545454" fill-opacity="1"><g transform="translate(60.885967, 84.236764)"><g><path d="M 0.265625 -3.109375 C 0.265625 -3.753906 0.378906 -4.316406 0.609375 -4.796875 C 0.847656 -5.273438 1.171875 -5.644531 1.578125 -5.90625 C 1.984375 -6.164062 2.429688 -6.296875 2.921875 -6.296875 C 3.316406 -6.296875 3.671875 -6.210938 3.984375 -6.046875 C 4.304688 -5.878906 4.554688 -5.648438 4.734375 -5.359375 L 4.734375 -8.203125 L 6.90625 -8.203125 L 6.90625 0 L 4.734375 0 L 4.734375 -0.859375 C 4.554688 -0.578125 4.3125 -0.347656 4 -0.171875 C 3.695312 -0.00390625 3.332031 0.078125 2.90625 0.078125 C 2.414062 0.078125 1.96875 -0.0507812 1.5625 -0.3125 C 1.164062 -0.570312 0.847656 -0.941406 0.609375 -1.421875 C 0.378906 -1.910156 0.265625 -2.472656 0.265625 -3.109375 Z M 4.734375 -3.109375 C 4.734375 -3.515625 4.625 -3.828125 4.40625 -4.046875 C 4.195312 -4.273438 3.929688 -4.390625 3.609375 -4.390625 C 3.285156 -4.390625 3.015625 -4.273438 2.796875 -4.046875 C 2.585938 -3.828125 2.484375 -3.515625 2.484375 -3.109375 C 2.484375 -2.710938 2.585938 -2.394531 2.796875 -2.15625 C 3.015625 -1.925781 3.285156 -1.8125 3.609375 -1.8125 C 3.929688 -1.8125 4.195312 -1.925781 4.40625 -2.15625 C 4.625 -2.382812 4.734375 -2.703125 4.734375 -3.109375 Z M 4.734375 -3.109375 "/></g></g></g><g fill="#545454" fill-opacity="1"><g transform="translate(68.41387, 84.236764)"><g><path d="M 1.71875 -6.796875 C 1.332031 -6.796875 1.019531 -6.898438 0.78125 -7.109375 C 0.550781 -7.316406 0.4375 -7.582031 0.4375 -7.90625 C 0.4375 -8.226562 0.550781 -8.492188 0.78125 -8.703125 C 1.019531 -8.921875 1.332031 -9.03125 1.71875 -9.03125 C 2.09375 -9.03125 2.394531 -8.921875 2.625 -8.703125 C 2.863281 -8.492188 2.984375 -8.226562 2.984375 -7.90625 C 2.984375 -7.582031 2.863281 -7.316406 2.625 -7.109375 C 2.394531 -6.898438 2.09375 -6.796875 1.71875 -6.796875 Z M 2.796875 -6.21875 L 2.796875 0 L 0.625 0 L 0.625 -6.21875 Z M 2.796875 -6.21875 "/></g></g></g><g fill="#545454" fill-opacity="1"><g transform="translate(71.823562, 84.236764)"><g><path d="M 4.6875 -6.265625 C 5.40625 -6.265625 5.972656 -6.023438 6.390625 -5.546875 C 6.816406 -5.078125 7.03125 -4.4375 7.03125 -3.625 L 7.03125 0 L 4.859375 0 L 4.859375 -3.328125 C 4.859375 -3.679688 4.765625 -3.957031 4.578125 -4.15625 C 4.390625 -4.363281 4.140625 -4.46875 3.828125 -4.46875 C 3.503906 -4.46875 3.25 -4.363281 3.0625 -4.15625 C 2.882812 -3.957031 2.796875 -3.679688 2.796875 -3.328125 L 2.796875 0 L 0.625 0 L 0.625 -6.21875 L 2.796875 -6.21875 L 2.796875 -5.328125 C 2.984375 -5.609375 3.238281 -5.832031 3.5625 -6 C 3.882812 -6.175781 4.257812 -6.265625 4.6875 -6.265625 Z M 4.6875 -6.265625 "/></g></g></g><g fill="#545454" fill-opacity="1"><g transform="translate(79.417883, 84.236764)"><g><path d="M 2.90625 -6.296875 C 3.332031 -6.296875 3.703125 -6.207031 4.015625 -6.03125 C 4.328125 -5.863281 4.566406 -5.632812 4.734375 -5.34375 L 4.734375 -6.21875 L 6.90625 -6.21875 L 6.90625 -0.0625 C 6.90625 0.519531 6.796875 1.046875 6.578125 1.515625 C 6.359375 1.984375 6.015625 2.359375 5.546875 2.640625 C 5.078125 2.921875 4.484375 3.0625 3.765625 3.0625 C 2.804688 3.0625 2.035156 2.832031 1.453125 2.375 C 0.878906 1.925781 0.550781 1.316406 0.46875 0.546875 L 2.609375 0.546875 C 2.660156 0.742188 2.773438 0.894531 2.953125 1 C 3.128906 1.113281 3.359375 1.171875 3.640625 1.171875 C 4.367188 1.171875 4.734375 0.757812 4.734375 -0.0625 L 4.734375 -0.859375 C 4.566406 -0.578125 4.328125 -0.347656 4.015625 -0.171875 C 3.703125 -0.00390625 3.332031 0.078125 2.90625 0.078125 C 2.414062 0.078125 1.96875 -0.0507812 1.5625 -0.3125 C 1.164062 -0.570312 0.847656 -0.941406 0.609375 -1.421875 C 0.378906 -1.910156 0.265625 -2.472656 0.265625 -3.109375 C 0.265625 -3.753906 0.378906 -4.316406 0.609375 -4.796875 C 0.847656 -5.273438 1.164062 -5.644531 1.5625 -5.90625 C 1.96875 -6.164062 2.414062 -6.296875 2.90625 -6.296875 Z M 4.734375 -3.109375 C 4.734375 -3.515625 4.625 -3.828125 4.40625 -4.046875 C 4.195312 -4.273438 3.929688 -4.390625 3.609375 -4.390625 C 3.285156 -4.390625 3.015625 -4.273438 2.796875 -4.046875 C 2.585938 -3.828125 2.484375 -3.515625 2.484375 -3.109375 C 2.484375 -2.710938 2.585938 -2.394531 2.796875 -2.15625 C 3.015625 -1.925781 3.285156 -1.8125 3.609375 -1.8125 C 3.929688 -1.8125 4.195312 -1.925781 4.40625 -2.15625 C 4.625 -2.382812 4.734375 -2.703125 4.734375 -3.109375 Z M 4.734375 -3.109375 "/></g></g></g><g fill="#545454" fill-opacity="1"><g transform="translate(86.945786, 84.236764)"><g/></g></g><g fill="#545454" fill-opacity="1"><g transform="translate(89.060241, 84.236764)"><g><path d="M 0.359375 -3.921875 C 0.359375 -4.691406 0.515625 -5.375 0.828125 -5.96875 C 1.148438 -6.570312 1.609375 -7.039062 2.203125 -7.375 C 2.796875 -7.71875 3.476562 -7.890625 4.25 -7.890625 C 5.21875 -7.890625 6.035156 -7.628906 6.703125 -7.109375 C 7.367188 -6.585938 7.796875 -5.878906 7.984375 -4.984375 L 5.65625 -4.984375 C 5.507812 -5.273438 5.3125 -5.5 5.0625 -5.65625 C 4.820312 -5.8125 4.535156 -5.890625 4.203125 -5.890625 C 3.703125 -5.890625 3.300781 -5.707031 3 -5.34375 C 2.707031 -4.988281 2.5625 -4.515625 2.5625 -3.921875 C 2.5625 -3.316406 2.707031 -2.832031 3 -2.46875 C 3.300781 -2.113281 3.703125 -1.9375 4.203125 -1.9375 C 4.535156 -1.9375 4.820312 -2.015625 5.0625 -2.171875 C 5.3125 -2.328125 5.507812 -2.550781 5.65625 -2.84375 L 7.984375 -2.84375 C 7.796875 -1.945312 7.367188 -1.238281 6.703125 -0.71875 C 6.035156 -0.195312 5.21875 0.0625 4.25 0.0625 C 3.476562 0.0625 2.796875 -0.101562 2.203125 -0.4375 C 1.609375 -0.78125 1.148438 -1.253906 0.828125 -1.859375 C 0.515625 -2.460938 0.359375 -3.148438 0.359375 -3.921875 Z M 0.359375 -3.921875 "/></g></g></g><g fill="#545454" fill-opacity="1"><g transform="translate(97.451627, 84.236764)"><g><path d="M 4.703125 -6.265625 C 5.410156 -6.265625 5.972656 -6.023438 6.390625 -5.546875 C 6.816406 -5.078125 7.03125 -4.4375 7.03125 -3.625 L 7.03125 0 L 4.859375 0 L 4.859375 -3.328125 C 4.859375 -3.679688 4.765625 -3.957031 4.578125 -4.15625 C 4.390625 -4.363281 4.140625 -4.46875 3.828125 -4.46875 C 3.503906 -4.46875 3.25 -4.363281 3.0625 -4.15625 C 2.882812 -3.957031 2.796875 -3.679688 2.796875 -3.328125 L 2.796875 0 L 0.625 0 L 0.625 -8.203125 L 2.796875 -8.203125 L 2.796875 -5.328125 C 2.984375 -5.609375 3.238281 -5.832031 3.5625 -6 C 3.894531 -6.175781 4.273438 -6.265625 4.703125 -6.265625 Z M 4.703125 -6.265625 "/></g></g></g><g fill="#545454" fill-opacity="1"><g transform="translate(105.045949, 84.236764)"><g><path d="M 0.265625 -3.109375 C 0.265625 -3.753906 0.378906 -4.316406 0.609375 -4.796875 C 0.847656 -5.273438 1.164062 -5.644531 1.5625 -5.90625 C 1.96875 -6.164062 2.414062 -6.296875 2.90625 -6.296875 C 3.34375 -6.296875 3.710938 -6.207031 4.015625 -6.03125 C 4.328125 -5.863281 4.566406 -5.632812 4.734375 -5.34375 L 4.734375 -6.21875 L 6.90625 -6.21875 L 6.90625 0 L 4.734375 0 L 4.734375 -0.859375 C 4.566406 -0.578125 4.328125 -0.347656 4.015625 -0.171875 C 3.703125 -0.00390625 3.332031 0.078125 2.90625 0.078125 C 2.414062 0.078125 1.96875 -0.0507812 1.5625 -0.3125 C 1.164062 -0.570312 0.847656 -0.941406 0.609375 -1.421875 C 0.378906 -1.910156 0.265625 -2.472656 0.265625 -3.109375 Z M 4.734375 -3.109375 C 4.734375 -3.515625 4.625 -3.828125 4.40625 -4.046875 C 4.195312 -4.273438 3.929688 -4.390625 3.609375 -4.390625 C 3.285156 -4.390625 3.015625 -4.273438 2.796875 -4.046875 C 2.585938 -3.828125 2.484375 -3.515625 2.484375 -3.109375 C 2.484375 -2.710938 2.585938 -2.394531 2.796875 -2.15625 C 3.015625 -1.925781 3.285156 -1.8125 3.609375 -1.8125 C 3.929688 -1.8125 4.195312 -1.925781 4.40625 -2.15625 C 4.625 -2.382812 4.734375 -2.703125 4.734375 -3.109375 Z M 4.734375 -3.109375 "/></g></g></g><g fill="#545454" fill-opacity="1"><g transform="translate(112.573852, 84.236764)"><g><path d="M 2.796875 -8.203125 L 2.796875 0 L 0.625 0 L 0.625 -8.203125 Z M 2.796875 -8.203125 "/></g></g></g><g fill="#545454" fill-opacity="1"><g transform="translate(115.983544, 84.236764)"><g><path d="M 2.796875 -8.203125 L 2.796875 0 L 0.625 0 L 0.625 -8.203125 Z M 2.796875 -8.203125 "/></g></g></g><g fill="#545454" fill-opacity="1"><g transform="translate(119.393235, 84.236764)"><g><path d="M 6.5625 -3.171875 C 6.5625 -3.003906 6.550781 -2.835938 6.53125 -2.671875 L 2.421875 -2.671875 C 2.441406 -2.328125 2.535156 -2.070312 2.703125 -1.90625 C 2.867188 -1.738281 3.078125 -1.65625 3.328125 -1.65625 C 3.691406 -1.65625 3.953125 -1.820312 4.109375 -2.15625 L 6.421875 -2.15625 C 6.328125 -1.71875 6.140625 -1.332031 5.859375 -1 C 5.585938 -0.664062 5.238281 -0.398438 4.8125 -0.203125 C 4.394531 -0.015625 3.929688 0.078125 3.421875 0.078125 C 2.804688 0.078125 2.257812 -0.0507812 1.78125 -0.3125 C 1.3125 -0.570312 0.941406 -0.941406 0.671875 -1.421875 C 0.398438 -1.898438 0.265625 -2.460938 0.265625 -3.109375 C 0.265625 -3.765625 0.394531 -4.328125 0.65625 -4.796875 C 0.925781 -5.273438 1.300781 -5.644531 1.78125 -5.90625 C 2.257812 -6.164062 2.804688 -6.296875 3.421875 -6.296875 C 4.035156 -6.296875 4.578125 -6.164062 5.046875 -5.90625 C 5.523438 -5.65625 5.894531 -5.296875 6.15625 -4.828125 C 6.425781 -4.359375 6.5625 -3.804688 6.5625 -3.171875 Z M 4.34375 -3.71875 C 4.34375 -3.988281 4.253906 -4.195312 4.078125 -4.34375 C 3.898438 -4.5 3.675781 -4.578125 3.40625 -4.578125 C 3.144531 -4.578125 2.925781 -4.503906 2.75 -4.359375 C 2.582031 -4.210938 2.472656 -4 2.421875 -3.71875 Z M 4.34375 -3.71875 "/></g></g></g><g fill="#545454" fill-opacity="1"><g transform="translate(126.21263, 84.236764)"><g><path d="M 4.6875 -6.265625 C 5.40625 -6.265625 5.972656 -6.023438 6.390625 -5.546875 C 6.816406 -5.078125 7.03125 -4.4375 7.03125 -3.625 L 7.03125 0 L 4.859375 0 L 4.859375 -3.328125 C 4.859375 -3.679688 4.765625 -3.957031 4.578125 -4.15625 C 4.390625 -4.363281 4.140625 -4.46875 3.828125 -4.46875 C 3.503906 -4.46875 3.25 -4.363281 3.0625 -4.15625 C 2.882812 -3.957031 2.796875 -3.679688 2.796875 -3.328125 L 2.796875 0 L 0.625 0 L 0.625 -6.21875 L 2.796875 -6.21875 L 2.796875 -5.328125 C 2.984375 -5.609375 3.238281 -5.832031 3.5625 -6 C 3.882812 -6.175781 4.257812 -6.265625 4.6875 -6.265625 Z M 4.6875 -6.265625 "/></g></g></g><g fill="#545454" fill-opacity="1"><g transform="translate(133.806952, 84.236764)"><g><path d="M 2.90625 -6.296875 C 3.332031 -6.296875 3.703125 -6.207031 4.015625 -6.03125 C 4.328125 -5.863281 4.566406 -5.632812 4.734375 -5.34375 L 4.734375 -6.21875 L 6.90625 -6.21875 L 6.90625 -0.0625 C 6.90625 0.519531 6.796875 1.046875 6.578125 1.515625 C 6.359375 1.984375 6.015625 2.359375 5.546875 2.640625 C 5.078125 2.921875 4.484375 3.0625 3.765625 3.0625 C 2.804688 3.0625 2.035156 2.832031 1.453125 2.375 C 0.878906 1.925781 0.550781 1.316406 0.46875 0.546875 L 2.609375 0.546875 C 2.660156 0.742188 2.773438 0.894531 2.953125 1 C 3.128906 1.113281 3.359375 1.171875 3.640625 1.171875 C 4.367188 1.171875 4.734375 0.757812 4.734375 -0.0625 L 4.734375 -0.859375 C 4.566406 -0.578125 4.328125 -0.347656 4.015625 -0.171875 C 3.703125 -0.00390625 3.332031 0.078125 2.90625 0.078125 C 2.414062 0.078125 1.96875 -0.0507812 1.5625 -0.3125 C 1.164062 -0.570312 0.847656 -0.941406 0.609375 -1.421875 C 0.378906 -1.910156 0.265625 -2.472656 0.265625 -3.109375 C 0.265625 -3.753906 0.378906 -4.316406 0.609375 -4.796875 C 0.847656 -5.273438 1.164062 -5.644531 1.5625 -5.90625 C 1.96875 -6.164062 2.414062 -6.296875 2.90625 -6.296875 Z M 4.734375 -3.109375 C 4.734375 -3.515625 4.625 -3.828125 4.40625 -4.046875 C 4.195312 -4.273438 3.929688 -4.390625 3.609375 -4.390625 C 3.285156 -4.390625 3.015625 -4.273438 2.796875 -4.046875 C 2.585938 -3.828125 2.484375 -3.515625 2.484375 -3.109375 C 2.484375 -2.710938 2.585938 -2.394531 2.796875 -2.15625 C 3.015625 -1.925781 3.285156 -1.8125 3.609375 -1.8125 C 3.929688 -1.8125 4.195312 -1.925781 4.40625 -2.15625 C 4.625 -2.382812 4.734375 -2.703125 4.734375 -3.109375 Z M 4.734375 -3.109375 "/></g></g></g><g fill="#545454" fill-opacity="1"><g transform="translate(141.334855, 84.236764)"><g><path d="M 6.5625 -3.171875 C 6.5625 -3.003906 6.550781 -2.835938 6.53125 -2.671875 L 2.421875 -2.671875 C 2.441406 -2.328125 2.535156 -2.070312 2.703125 -1.90625 C 2.867188 -1.738281 3.078125 -1.65625 3.328125 -1.65625 C 3.691406 -1.65625 3.953125 -1.820312 4.109375 -2.15625 L 6.421875 -2.15625 C 6.328125 -1.71875 6.140625 -1.332031 5.859375 -1 C 5.585938 -0.664062 5.238281 -0.398438 4.8125 -0.203125 C 4.394531 -0.015625 3.929688 0.078125 3.421875 0.078125 C 2.804688 0.078125 2.257812 -0.0507812 1.78125 -0.3125 C 1.3125 -0.570312 0.941406 -0.941406 0.671875 -1.421875 C 0.398438 -1.898438 0.265625 -2.460938 0.265625 -3.109375 C 0.265625 -3.765625 0.394531 -4.328125 0.65625 -4.796875 C 0.925781 -5.273438 1.300781 -5.644531 1.78125 -5.90625 C 2.257812 -6.164062 2.804688 -6.296875 3.421875 -6.296875 C 4.035156 -6.296875 4.578125 -6.164062 5.046875 -5.90625 C 5.523438 -5.65625 5.894531 -5.296875 6.15625 -4.828125 C 6.425781 -4.359375 6.5625 -3.804688 6.5625 -3.171875 Z M 4.34375 -3.71875 C 4.34375 -3.988281 4.253906 -4.195312 4.078125 -4.34375 C 3.898438 -4.5 3.675781 -4.578125 3.40625 -4.578125 C 3.144531 -4.578125 2.925781 -4.503906 2.75 -4.359375 C 2.582031 -4.210938 2.472656 -4 2.421875 -3.71875 Z M 4.34375 -3.71875 "/></g></g></g></svg>