<svg xmlns="http://www.w3.org/2000/svg" xmlns:xlink="http://www.w3.org/1999/xlink" width="150" zoomAndPan="magnify" viewBox="0 0 112.5 42.75" height="57" preserveAspectRatio="xMidYMid meet" version="1.0"><defs><g/><clipPath id="id1"><path d="M 1.03125 1.804688 L 23 1.804688 L 23 40.75 L 1.03125 40.75 Z M 1.03125 1.804688 " clip-rule="nonzero"/></clipPath><clipPath id="id2"><path d="M 62 0 L 86 0 L 86 42.5 L 62 42.5 Z M 62 0 " clip-rule="nonzero"/></clipPath><clipPath id="id3"><path d="M 89 1.804688 L 111.140625 1.804688 L 111.140625 40.75 L 89 40.75 Z M 89 1.804688 " clip-rule="nonzero"/></clipPath></defs><g clip-path="url(#id1)"><path fill="#ff914d" d="M 1.03125 21.269531 C 1.03125 20.570312 1.296875 19.871094 1.820312 19.339844 L 18.378906 2.589844 C 19.433594 1.523438 21.140625 1.523438 22.195312 2.589844 C 23.246094 3.65625 23.246094 5.382812 22.195312 6.449219 L 7.542969 21.269531 L 22.191406 36.089844 C 23.242188 37.15625 23.242188 38.882812 22.191406 39.949219 C 21.136719 41.015625 19.429688 41.015625 18.378906 39.949219 L 1.820312 23.195312 C 1.292969 22.667969 1.03125 21.964844 1.03125 21.269531 Z M 1.03125 21.269531 " fill-opacity="1" fill-rule="nonzero"/></g><g clip-path="url(#id2)"><g fill="#ff914d" fill-opacity="1"><g transform="translate(61.421967, 40.106961)"><g><path d="M 0.859375 -0.359375 C 0.859375 -0.660156 0.945312 -0.984375 1.125 -1.328125 L 18.96875 -37.984375 C 19.375 -38.828125 20.082031 -39.25 21.09375 -39.25 C 21.84375 -39.25 22.53125 -38.992188 23.15625 -38.484375 C 23.78125 -37.972656 24.09375 -37.332031 24.09375 -36.5625 C 24.09375 -36.1875 24.023438 -35.863281 23.890625 -35.59375 L 6 1.0625 C 5.59375 1.914062 4.832031 2.34375 3.71875 2.34375 C 2.894531 2.34375 2.210938 2.0625 1.671875 1.5 C 1.128906 0.9375 0.859375 0.316406 0.859375 -0.359375 Z M 0.859375 -0.359375 "/></g></g></g></g><g clip-path="url(#id3)"><path fill="#ff914d" d="M 111.207031 21.269531 C 111.207031 20.570312 110.941406 19.871094 110.417969 19.339844 L 93.859375 2.589844 C 92.804688 1.523438 91.097656 1.523438 90.042969 2.589844 C 88.992188 3.65625 88.992188 5.382812 90.042969 6.449219 L 104.695312 21.269531 L 90.046875 36.089844 C 88.992188 37.15625 88.992188 38.882812 90.046875 39.949219 C 91.097656 41.015625 92.808594 41.015625 93.859375 39.949219 L 110.417969 23.195312 C 110.945312 22.667969 111.207031 21.964844 111.207031 21.269531 Z M 111.207031 21.269531 " fill-opacity="1" fill-rule="nonzero"/></g><g fill="#d9d9d9" fill-opacity="1"><g transform="translate(19.7695, 33.499241)"><g><path d="M 1.546875 -9.90625 C 1.546875 -11.914062 1.953125 -13.675781 2.765625 -15.1875 C 3.578125 -16.707031 4.691406 -17.882812 6.109375 -18.71875 C 7.535156 -19.5625 9.125 -19.984375 10.875 -19.984375 C 12.59375 -19.984375 14.082031 -19.613281 15.34375 -18.875 C 16.613281 -18.132812 17.5625 -17.203125 18.1875 -16.078125 L 18.1875 -19.65625 L 21.484375 -19.65625 L 21.484375 0 L 18.1875 0 L 18.1875 -3.65625 C 17.539062 -2.507812 16.578125 -1.554688 15.296875 -0.796875 C 14.015625 -0.046875 12.523438 0.328125 10.828125 0.328125 C 9.085938 0.328125 7.507812 -0.101562 6.09375 -0.96875 C 4.6875 -1.832031 3.578125 -3.039062 2.765625 -4.59375 C 1.953125 -6.144531 1.546875 -7.914062 1.546875 -9.90625 Z M 18.1875 -9.859375 C 18.1875 -11.347656 17.882812 -12.640625 17.28125 -13.734375 C 16.6875 -14.835938 15.878906 -15.679688 14.859375 -16.265625 C 13.847656 -16.847656 12.734375 -17.140625 11.515625 -17.140625 C 10.296875 -17.140625 9.179688 -16.851562 8.171875 -16.28125 C 7.171875 -15.707031 6.367188 -14.867188 5.765625 -13.765625 C 5.171875 -12.671875 4.875 -11.382812 4.875 -9.90625 C 4.875 -8.394531 5.171875 -7.082031 5.765625 -5.96875 C 6.367188 -4.863281 7.171875 -4.015625 8.171875 -3.421875 C 9.179688 -2.835938 10.296875 -2.546875 11.515625 -2.546875 C 12.734375 -2.546875 13.847656 -2.835938 14.859375 -3.421875 C 15.878906 -4.015625 16.6875 -4.863281 17.28125 -5.96875 C 17.882812 -7.082031 18.1875 -8.378906 18.1875 -9.859375 Z M 18.1875 -9.859375 "/></g></g></g><g fill="#d9d9d9" fill-opacity="1"><g transform="translate(44.021268, 33.499241)"><g><path d="M 10.6875 0.25 C 9.039062 0.25 7.566406 -0.0390625 6.265625 -0.625 C 4.960938 -1.207031 3.9375 -2.019531 3.1875 -3.0625 C 2.445312 -4.101562 2.066406 -5.304688 2.046875 -6.671875 L 5.53125 -6.671875 C 5.644531 -5.503906 6.125 -4.519531 6.96875 -3.71875 C 7.820312 -2.914062 9.0625 -2.515625 10.6875 -2.515625 C 12.238281 -2.515625 13.460938 -2.898438 14.359375 -3.671875 C 15.265625 -4.453125 15.71875 -5.453125 15.71875 -6.671875 C 15.71875 -7.628906 15.453125 -8.40625 14.921875 -9 C 14.398438 -9.601562 13.742188 -10.054688 12.953125 -10.359375 C 12.160156 -10.671875 11.097656 -11.007812 9.765625 -11.375 C 8.109375 -11.800781 6.785156 -12.226562 5.796875 -12.65625 C 4.804688 -13.09375 3.957031 -13.769531 3.25 -14.6875 C 2.539062 -15.613281 2.1875 -16.851562 2.1875 -18.40625 C 2.1875 -19.769531 2.53125 -20.976562 3.21875 -22.03125 C 3.914062 -23.082031 4.890625 -23.894531 6.140625 -24.46875 C 7.398438 -25.039062 8.84375 -25.328125 10.46875 -25.328125 C 12.8125 -25.328125 14.726562 -24.738281 16.21875 -23.5625 C 17.71875 -22.394531 18.566406 -20.84375 18.765625 -18.90625 L 15.171875 -18.90625 C 15.054688 -19.863281 14.554688 -20.707031 13.671875 -21.4375 C 12.785156 -22.164062 11.613281 -22.53125 10.15625 -22.53125 C 8.789062 -22.53125 7.675781 -22.175781 6.8125 -21.46875 C 5.957031 -20.757812 5.53125 -19.773438 5.53125 -18.515625 C 5.53125 -17.597656 5.785156 -16.851562 6.296875 -16.28125 C 6.804688 -15.707031 7.4375 -15.269531 8.1875 -14.96875 C 8.945312 -14.675781 10.007812 -14.335938 11.375 -13.953125 C 13.019531 -13.503906 14.34375 -13.054688 15.34375 -12.609375 C 16.351562 -12.171875 17.21875 -11.488281 17.9375 -10.5625 C 18.65625 -9.644531 19.015625 -8.394531 19.015625 -6.8125 C 19.015625 -5.59375 18.691406 -4.445312 18.046875 -3.375 C 17.398438 -2.300781 16.441406 -1.425781 15.171875 -0.75 C 13.910156 -0.0820312 12.414062 0.25 10.6875 0.25 Z M 10.6875 0.25 "/></g></g></g></svg>