<svg xmlns="http://www.w3.org/2000/svg" xmlns:xlink="http://www.w3.org/1999/xlink" width="370" zoomAndPan="magnify" viewBox="0 0 277.5 86.249997" height="115" preserveAspectRatio="xMidYMid meet" version="1.0"><defs><g/><clipPath id="id1"><path d="M 35 59.277344 L 230 59.277344 L 230 61.511719 L 35 61.511719 Z M 35 59.277344 " clip-rule="nonzero"/></clipPath><clipPath id="id2"><path d="M 35 58.25 L 230 58.25 L 230 60.484375 L 35 60.484375 Z M 35 58.25 " clip-rule="nonzero"/></clipPath></defs><g fill="#737373" fill-opacity="1"><g transform="translate(41.73706, 79.279062)"><g><path d="M 8.4375 -1.9375 L 4.234375 -1.9375 L 3.59375 0 L 0.140625 0 L 4.453125 -11.859375 L 8.25 -11.859375 L 12.5625 0 L 9.078125 0 Z M 7.609375 -4.453125 L 6.34375 -8.28125 L 5.078125 -4.453125 Z M 7.609375 -4.453125 "/></g></g></g><g fill="#737373" fill-opacity="1"><g transform="translate(54.420427, 79.279062)"><g/></g></g><g fill="#737373" fill-opacity="1"><g transform="translate(57.629068, 79.279062)"><g><path d="M 0.53125 -5.953125 C 0.53125 -7.117188 0.773438 -8.15625 1.265625 -9.0625 C 1.753906 -9.976562 2.445312 -10.691406 3.34375 -11.203125 C 4.238281 -11.710938 5.269531 -11.96875 6.4375 -11.96875 C 7.914062 -11.96875 9.160156 -11.570312 10.171875 -10.78125 C 11.179688 -9.988281 11.832031 -8.914062 12.125 -7.5625 L 8.578125 -7.5625 C 8.359375 -8.007812 8.0625 -8.347656 7.6875 -8.578125 C 7.3125 -8.816406 6.878906 -8.9375 6.390625 -8.9375 C 5.628906 -8.9375 5.019531 -8.664062 4.5625 -8.125 C 4.113281 -7.582031 3.890625 -6.859375 3.890625 -5.953125 C 3.890625 -5.035156 4.113281 -4.300781 4.5625 -3.75 C 5.019531 -3.207031 5.628906 -2.9375 6.390625 -2.9375 C 6.878906 -2.9375 7.3125 -3.050781 7.6875 -3.28125 C 8.0625 -3.519531 8.359375 -3.867188 8.578125 -4.328125 L 12.125 -4.328125 C 11.832031 -2.960938 11.179688 -1.882812 10.171875 -1.09375 C 9.160156 -0.3125 7.914062 0.078125 6.4375 0.078125 C 5.269531 0.078125 4.238281 -0.175781 3.34375 -0.6875 C 2.445312 -1.195312 1.753906 -1.90625 1.265625 -2.8125 C 0.773438 -3.726562 0.53125 -4.773438 0.53125 -5.953125 Z M 0.53125 -5.953125 "/></g></g></g><g fill="#737373" fill-opacity="1"><g transform="translate(70.362834, 79.279062)"><g><path d="M 5.328125 0.125 C 4.390625 0.125 3.546875 -0.0703125 2.796875 -0.46875 C 2.054688 -0.863281 1.472656 -1.425781 1.046875 -2.15625 C 0.617188 -2.882812 0.40625 -3.738281 0.40625 -4.71875 C 0.40625 -5.695312 0.617188 -6.550781 1.046875 -7.28125 C 1.484375 -8.007812 2.070312 -8.566406 2.8125 -8.953125 C 3.5625 -9.347656 4.40625 -9.546875 5.34375 -9.546875 C 6.289062 -9.546875 7.132812 -9.347656 7.875 -8.953125 C 8.625 -8.566406 9.210938 -8.007812 9.640625 -7.28125 C 10.078125 -6.550781 10.296875 -5.695312 10.296875 -4.71875 C 10.296875 -3.75 10.078125 -2.894531 9.640625 -2.15625 C 9.210938 -1.425781 8.617188 -0.863281 7.859375 -0.46875 C 7.109375 -0.0703125 6.265625 0.125 5.328125 0.125 Z M 5.328125 -2.734375 C 5.785156 -2.734375 6.164062 -2.90625 6.46875 -3.25 C 6.78125 -3.59375 6.9375 -4.082031 6.9375 -4.71875 C 6.9375 -5.363281 6.78125 -5.851562 6.46875 -6.1875 C 6.164062 -6.519531 5.789062 -6.6875 5.34375 -6.6875 C 4.894531 -6.6875 4.519531 -6.519531 4.21875 -6.1875 C 3.914062 -5.851562 3.765625 -5.363281 3.765625 -4.71875 C 3.765625 -4.070312 3.910156 -3.578125 4.203125 -3.234375 C 4.492188 -2.898438 4.867188 -2.734375 5.328125 -2.734375 Z M 5.328125 -2.734375 "/></g></g></g><g fill="#737373" fill-opacity="1"><g transform="translate(81.047098, 79.279062)"><g><path d="M 0.40625 -4.71875 C 0.40625 -5.695312 0.582031 -6.550781 0.9375 -7.28125 C 1.289062 -8.007812 1.773438 -8.566406 2.390625 -8.953125 C 3.003906 -9.347656 3.6875 -9.546875 4.4375 -9.546875 C 5.039062 -9.546875 5.582031 -9.421875 6.0625 -9.171875 C 6.539062 -8.921875 6.910156 -8.578125 7.171875 -8.140625 L 7.171875 -12.4375 L 10.484375 -12.4375 L 10.484375 0 L 7.171875 0 L 7.171875 -1.3125 C 6.921875 -0.875 6.554688 -0.523438 6.078125 -0.265625 C 5.609375 -0.00390625 5.054688 0.125 4.421875 0.125 C 3.671875 0.125 2.988281 -0.0703125 2.375 -0.46875 C 1.769531 -0.863281 1.289062 -1.425781 0.9375 -2.15625 C 0.582031 -2.894531 0.40625 -3.75 0.40625 -4.71875 Z M 7.203125 -4.71875 C 7.203125 -5.320312 7.035156 -5.796875 6.703125 -6.140625 C 6.367188 -6.492188 5.960938 -6.671875 5.484375 -6.671875 C 4.984375 -6.671875 4.570312 -6.5 4.25 -6.15625 C 3.925781 -5.820312 3.765625 -5.34375 3.765625 -4.71875 C 3.765625 -4.113281 3.925781 -3.632812 4.25 -3.28125 C 4.570312 -2.925781 4.984375 -2.75 5.484375 -2.75 C 5.960938 -2.75 6.367188 -2.921875 6.703125 -3.265625 C 7.035156 -3.617188 7.203125 -4.101562 7.203125 -4.71875 Z M 7.203125 -4.71875 "/></g></g></g><g fill="#737373" fill-opacity="1"><g transform="translate(92.470525, 79.279062)"><g><path d="M 2.609375 -10.3125 C 2.023438 -10.3125 1.554688 -10.46875 1.203125 -10.78125 C 0.847656 -11.101562 0.671875 -11.503906 0.671875 -11.984375 C 0.671875 -12.484375 0.847656 -12.894531 1.203125 -13.21875 C 1.554688 -13.539062 2.023438 -13.703125 2.609375 -13.703125 C 3.179688 -13.703125 3.640625 -13.539062 3.984375 -13.21875 C 4.335938 -12.894531 4.515625 -12.484375 4.515625 -11.984375 C 4.515625 -11.503906 4.335938 -11.101562 3.984375 -10.78125 C 3.640625 -10.46875 3.179688 -10.3125 2.609375 -10.3125 Z M 4.234375 -9.4375 L 4.234375 0 L 0.9375 0 L 0.9375 -9.4375 Z M 4.234375 -9.4375 "/></g></g></g><g fill="#737373" fill-opacity="1"><g transform="translate(97.644666, 79.279062)"><g><path d="M 7.109375 -9.515625 C 8.203125 -9.515625 9.066406 -9.148438 9.703125 -8.421875 C 10.335938 -7.703125 10.65625 -6.726562 10.65625 -5.5 L 10.65625 0 L 7.359375 0 L 7.359375 -5.0625 C 7.359375 -5.601562 7.21875 -6.023438 6.9375 -6.328125 C 6.65625 -6.640625 6.28125 -6.796875 5.8125 -6.796875 C 5.320312 -6.796875 4.9375 -6.640625 4.65625 -6.328125 C 4.375 -6.023438 4.234375 -5.601562 4.234375 -5.0625 L 4.234375 0 L 0.9375 0 L 0.9375 -9.4375 L 4.234375 -9.4375 L 4.234375 -8.09375 C 4.523438 -8.507812 4.914062 -8.847656 5.40625 -9.109375 C 5.90625 -9.378906 6.472656 -9.515625 7.109375 -9.515625 Z M 7.109375 -9.515625 "/></g></g></g><g fill="#737373" fill-opacity="1"><g transform="translate(109.168892, 79.279062)"><g><path d="M 4.421875 -9.546875 C 5.054688 -9.546875 5.613281 -9.414062 6.09375 -9.15625 C 6.570312 -8.90625 6.941406 -8.5625 7.203125 -8.125 L 7.203125 -9.4375 L 10.484375 -9.4375 L 10.484375 -0.09375 C 10.484375 0.789062 10.316406 1.585938 9.984375 2.296875 C 9.648438 3.003906 9.125 3.570312 8.40625 4 C 7.695312 4.425781 6.800781 4.640625 5.71875 4.640625 C 4.257812 4.640625 3.09375 4.296875 2.21875 3.609375 C 1.34375 2.929688 0.84375 2.003906 0.71875 0.828125 L 3.96875 0.828125 C 4.03125 1.128906 4.195312 1.363281 4.46875 1.53125 C 4.738281 1.695312 5.085938 1.78125 5.515625 1.78125 C 6.640625 1.78125 7.203125 1.15625 7.203125 -0.09375 L 7.203125 -1.3125 C 6.941406 -0.875 6.570312 -0.523438 6.09375 -0.265625 C 5.613281 -0.00390625 5.054688 0.125 4.421875 0.125 C 3.671875 0.125 2.988281 -0.0703125 2.375 -0.46875 C 1.769531 -0.863281 1.289062 -1.425781 0.9375 -2.15625 C 0.582031 -2.894531 0.40625 -3.75 0.40625 -4.71875 C 0.40625 -5.695312 0.582031 -6.550781 0.9375 -7.28125 C 1.289062 -8.007812 1.769531 -8.566406 2.375 -8.953125 C 2.988281 -9.347656 3.671875 -9.546875 4.421875 -9.546875 Z M 7.203125 -4.71875 C 7.203125 -5.320312 7.035156 -5.796875 6.703125 -6.140625 C 6.367188 -6.492188 5.960938 -6.671875 5.484375 -6.671875 C 4.984375 -6.671875 4.570312 -6.5 4.25 -6.15625 C 3.925781 -5.820312 3.765625 -5.34375 3.765625 -4.71875 C 3.765625 -4.113281 3.925781 -3.632812 4.25 -3.28125 C 4.570312 -2.925781 4.984375 -2.75 5.484375 -2.75 C 5.960938 -2.75 6.367188 -2.921875 6.703125 -3.265625 C 7.035156 -3.617188 7.203125 -4.101562 7.203125 -4.71875 Z M 7.203125 -4.71875 "/></g></g></g><g fill="#737373" fill-opacity="1"><g transform="translate(120.59232, 79.279062)"><g/></g></g><g fill="#737373" fill-opacity="1"><g transform="translate(123.800961, 79.279062)"><g><path d="M 0.53125 -5.953125 C 0.53125 -7.117188 0.773438 -8.15625 1.265625 -9.0625 C 1.753906 -9.976562 2.445312 -10.691406 3.34375 -11.203125 C 4.238281 -11.710938 5.269531 -11.96875 6.4375 -11.96875 C 7.914062 -11.96875 9.160156 -11.570312 10.171875 -10.78125 C 11.179688 -9.988281 11.832031 -8.914062 12.125 -7.5625 L 8.578125 -7.5625 C 8.359375 -8.007812 8.0625 -8.347656 7.6875 -8.578125 C 7.3125 -8.816406 6.878906 -8.9375 6.390625 -8.9375 C 5.628906 -8.9375 5.019531 -8.664062 4.5625 -8.125 C 4.113281 -7.582031 3.890625 -6.859375 3.890625 -5.953125 C 3.890625 -5.035156 4.113281 -4.300781 4.5625 -3.75 C 5.019531 -3.207031 5.628906 -2.9375 6.390625 -2.9375 C 6.878906 -2.9375 7.3125 -3.050781 7.6875 -3.28125 C 8.0625 -3.519531 8.359375 -3.867188 8.578125 -4.328125 L 12.125 -4.328125 C 11.832031 -2.960938 11.179688 -1.882812 10.171875 -1.09375 C 9.160156 -0.3125 7.914062 0.078125 6.4375 0.078125 C 5.269531 0.078125 4.238281 -0.175781 3.34375 -0.6875 C 2.445312 -1.195312 1.753906 -1.90625 1.265625 -2.8125 C 0.773438 -3.726562 0.53125 -4.773438 0.53125 -5.953125 Z M 0.53125 -5.953125 "/></g></g></g><g fill="#737373" fill-opacity="1"><g transform="translate(136.534727, 79.279062)"><g><path d="M 7.140625 -9.515625 C 8.222656 -9.515625 9.078125 -9.148438 9.703125 -8.421875 C 10.335938 -7.703125 10.65625 -6.726562 10.65625 -5.5 L 10.65625 0 L 7.359375 0 L 7.359375 -5.0625 C 7.359375 -5.601562 7.21875 -6.023438 6.9375 -6.328125 C 6.65625 -6.640625 6.28125 -6.796875 5.8125 -6.796875 C 5.320312 -6.796875 4.9375 -6.640625 4.65625 -6.328125 C 4.375 -6.023438 4.234375 -5.601562 4.234375 -5.0625 L 4.234375 0 L 0.9375 0 L 0.9375 -12.4375 L 4.234375 -12.4375 L 4.234375 -8.09375 C 4.523438 -8.507812 4.921875 -8.847656 5.421875 -9.109375 C 5.921875 -9.378906 6.492188 -9.515625 7.140625 -9.515625 Z M 7.140625 -9.515625 "/></g></g></g><g fill="#737373" fill-opacity="1"><g transform="translate(148.058954, 79.279062)"><g><path d="M 0.40625 -4.71875 C 0.40625 -5.695312 0.582031 -6.550781 0.9375 -7.28125 C 1.289062 -8.007812 1.769531 -8.566406 2.375 -8.953125 C 2.988281 -9.347656 3.671875 -9.546875 4.421875 -9.546875 C 5.066406 -9.546875 5.625 -9.414062 6.09375 -9.15625 C 6.570312 -8.90625 6.941406 -8.5625 7.203125 -8.125 L 7.203125 -9.4375 L 10.484375 -9.4375 L 10.484375 0 L 7.203125 0 L 7.203125 -1.3125 C 6.941406 -0.875 6.570312 -0.523438 6.09375 -0.265625 C 5.613281 -0.00390625 5.054688 0.125 4.421875 0.125 C 3.671875 0.125 2.988281 -0.0703125 2.375 -0.46875 C 1.769531 -0.863281 1.289062 -1.425781 0.9375 -2.15625 C 0.582031 -2.894531 0.40625 -3.75 0.40625 -4.71875 Z M 7.203125 -4.71875 C 7.203125 -5.320312 7.035156 -5.796875 6.703125 -6.140625 C 6.367188 -6.492188 5.960938 -6.671875 5.484375 -6.671875 C 4.984375 -6.671875 4.570312 -6.5 4.25 -6.15625 C 3.925781 -5.820312 3.765625 -5.34375 3.765625 -4.71875 C 3.765625 -4.113281 3.925781 -3.632812 4.25 -3.28125 C 4.570312 -2.925781 4.984375 -2.75 5.484375 -2.75 C 5.960938 -2.75 6.367188 -2.921875 6.703125 -3.265625 C 7.035156 -3.617188 7.203125 -4.101562 7.203125 -4.71875 Z M 7.203125 -4.71875 "/></g></g></g><g fill="#737373" fill-opacity="1"><g transform="translate(159.482381, 79.279062)"><g><path d="M 4.234375 -12.4375 L 4.234375 0 L 0.9375 0 L 0.9375 -12.4375 Z M 4.234375 -12.4375 "/></g></g></g><g fill="#737373" fill-opacity="1"><g transform="translate(164.656521, 79.279062)"><g><path d="M 4.234375 -12.4375 L 4.234375 0 L 0.9375 0 L 0.9375 -12.4375 Z M 4.234375 -12.4375 "/></g></g></g><g fill="#737373" fill-opacity="1"><g transform="translate(169.830662, 79.279062)"><g><path d="M 9.953125 -4.828125 C 9.953125 -4.566406 9.9375 -4.304688 9.90625 -4.046875 L 3.671875 -4.046875 C 3.703125 -3.535156 3.84375 -3.148438 4.09375 -2.890625 C 4.34375 -2.640625 4.664062 -2.515625 5.0625 -2.515625 C 5.613281 -2.515625 6.003906 -2.765625 6.234375 -3.265625 L 9.75 -3.265625 C 9.601562 -2.609375 9.316406 -2.023438 8.890625 -1.515625 C 8.472656 -1.003906 7.945312 -0.601562 7.3125 -0.3125 C 6.675781 -0.0195312 5.96875 0.125 5.1875 0.125 C 4.257812 0.125 3.429688 -0.0703125 2.703125 -0.46875 C 1.984375 -0.863281 1.421875 -1.425781 1.015625 -2.15625 C 0.609375 -2.882812 0.40625 -3.738281 0.40625 -4.71875 C 0.40625 -5.707031 0.601562 -6.5625 1 -7.28125 C 1.40625 -8.007812 1.96875 -8.566406 2.6875 -8.953125 C 3.414062 -9.347656 4.25 -9.546875 5.1875 -9.546875 C 6.125 -9.546875 6.953125 -9.351562 7.671875 -8.96875 C 8.390625 -8.59375 8.945312 -8.046875 9.34375 -7.328125 C 9.75 -6.617188 9.953125 -5.785156 9.953125 -4.828125 Z M 6.59375 -5.65625 C 6.59375 -6.050781 6.457031 -6.363281 6.1875 -6.59375 C 5.914062 -6.820312 5.578125 -6.9375 5.171875 -6.9375 C 4.773438 -6.9375 4.445312 -6.828125 4.1875 -6.609375 C 3.925781 -6.390625 3.757812 -6.070312 3.6875 -5.65625 Z M 6.59375 -5.65625 "/></g></g></g><g fill="#737373" fill-opacity="1"><g transform="translate(180.178943, 79.279062)"><g><path d="M 7.109375 -9.515625 C 8.203125 -9.515625 9.066406 -9.148438 9.703125 -8.421875 C 10.335938 -7.703125 10.65625 -6.726562 10.65625 -5.5 L 10.65625 0 L 7.359375 0 L 7.359375 -5.0625 C 7.359375 -5.601562 7.21875 -6.023438 6.9375 -6.328125 C 6.65625 -6.640625 6.28125 -6.796875 5.8125 -6.796875 C 5.320312 -6.796875 4.9375 -6.640625 4.65625 -6.328125 C 4.375 -6.023438 4.234375 -5.601562 4.234375 -5.0625 L 4.234375 0 L 0.9375 0 L 0.9375 -9.4375 L 4.234375 -9.4375 L 4.234375 -8.09375 C 4.523438 -8.507812 4.914062 -8.847656 5.40625 -9.109375 C 5.90625 -9.378906 6.472656 -9.515625 7.109375 -9.515625 Z M 7.109375 -9.515625 "/></g></g></g><g fill="#737373" fill-opacity="1"><g transform="translate(191.70317, 79.279062)"><g><path d="M 4.421875 -9.546875 C 5.054688 -9.546875 5.613281 -9.414062 6.09375 -9.15625 C 6.570312 -8.90625 6.941406 -8.5625 7.203125 -8.125 L 7.203125 -9.4375 L 10.484375 -9.4375 L 10.484375 -0.09375 C 10.484375 0.789062 10.316406 1.585938 9.984375 2.296875 C 9.648438 3.003906 9.125 3.570312 8.40625 4 C 7.695312 4.425781 6.800781 4.640625 5.71875 4.640625 C 4.257812 4.640625 3.09375 4.296875 2.21875 3.609375 C 1.34375 2.929688 0.84375 2.003906 0.71875 0.828125 L 3.96875 0.828125 C 4.03125 1.128906 4.195312 1.363281 4.46875 1.53125 C 4.738281 1.695312 5.085938 1.78125 5.515625 1.78125 C 6.640625 1.78125 7.203125 1.15625 7.203125 -0.09375 L 7.203125 -1.3125 C 6.941406 -0.875 6.570312 -0.523438 6.09375 -0.265625 C 5.613281 -0.00390625 5.054688 0.125 4.421875 0.125 C 3.671875 0.125 2.988281 -0.0703125 2.375 -0.46875 C 1.769531 -0.863281 1.289062 -1.425781 0.9375 -2.15625 C 0.582031 -2.894531 0.40625 -3.75 0.40625 -4.71875 C 0.40625 -5.695312 0.582031 -6.550781 0.9375 -7.28125 C 1.289062 -8.007812 1.769531 -8.566406 2.375 -8.953125 C 2.988281 -9.347656 3.671875 -9.546875 4.421875 -9.546875 Z M 7.203125 -4.71875 C 7.203125 -5.320312 7.035156 -5.796875 6.703125 -6.140625 C 6.367188 -6.492188 5.960938 -6.671875 5.484375 -6.671875 C 4.984375 -6.671875 4.570312 -6.5 4.25 -6.15625 C 3.925781 -5.820312 3.765625 -5.34375 3.765625 -4.71875 C 3.765625 -4.113281 3.925781 -3.632812 4.25 -3.28125 C 4.570312 -2.925781 4.984375 -2.75 5.484375 -2.75 C 5.960938 -2.75 6.367188 -2.921875 6.703125 -3.265625 C 7.035156 -3.617188 7.203125 -4.101562 7.203125 -4.71875 Z M 7.203125 -4.71875 "/></g></g></g><g fill="#737373" fill-opacity="1"><g transform="translate(203.126587, 79.279062)"><g><path d="M 9.953125 -4.828125 C 9.953125 -4.566406 9.9375 -4.304688 9.90625 -4.046875 L 3.671875 -4.046875 C 3.703125 -3.535156 3.84375 -3.148438 4.09375 -2.890625 C 4.34375 -2.640625 4.664062 -2.515625 5.0625 -2.515625 C 5.613281 -2.515625 6.003906 -2.765625 6.234375 -3.265625 L 9.75 -3.265625 C 9.601562 -2.609375 9.316406 -2.023438 8.890625 -1.515625 C 8.472656 -1.003906 7.945312 -0.601562 7.3125 -0.3125 C 6.675781 -0.0195312 5.96875 0.125 5.1875 0.125 C 4.257812 0.125 3.429688 -0.0703125 2.703125 -0.46875 C 1.984375 -0.863281 1.421875 -1.425781 1.015625 -2.15625 C 0.609375 -2.882812 0.40625 -3.738281 0.40625 -4.71875 C 0.40625 -5.707031 0.601562 -6.5625 1 -7.28125 C 1.40625 -8.007812 1.96875 -8.566406 2.6875 -8.953125 C 3.414062 -9.347656 4.25 -9.546875 5.1875 -9.546875 C 6.125 -9.546875 6.953125 -9.351562 7.671875 -8.96875 C 8.390625 -8.59375 8.945312 -8.046875 9.34375 -7.328125 C 9.75 -6.617188 9.953125 -5.785156 9.953125 -4.828125 Z M 6.59375 -5.65625 C 6.59375 -6.050781 6.457031 -6.363281 6.1875 -6.59375 C 5.914062 -6.820312 5.578125 -6.9375 5.171875 -6.9375 C 4.773438 -6.9375 4.445312 -6.828125 4.1875 -6.609375 C 3.925781 -6.390625 3.757812 -6.070312 3.6875 -5.65625 Z M 6.59375 -5.65625 "/></g></g></g><g fill="#dd1e1e" fill-opacity="0.4"><g transform="translate(3.582339, 49.833066)"><g><path d="M 12.625 -21.03125 C 12.75 -20.476562 12.90625 -19.703125 13.09375 -18.703125 C 13.28125 -17.703125 13.476562 -16.597656 13.6875 -15.390625 C 13.90625 -14.191406 14.125 -12.957031 14.34375 -11.6875 C 14.570312 -10.425781 14.773438 -9.269531 14.953125 -8.21875 C 15.640625 -9.269531 16.390625 -10.398438 17.203125 -11.609375 C 18.015625 -12.828125 18.8125 -14.023438 19.59375 -15.203125 C 20.382812 -16.378906 21.132812 -17.476562 21.84375 -18.5 C 22.550781 -19.519531 23.160156 -20.363281 23.671875 -21.03125 L 27.859375 -21.03125 C 27.710938 -19.632812 27.519531 -18.066406 27.28125 -16.328125 C 27.050781 -14.585938 26.789062 -12.785156 26.5 -10.921875 C 26.207031 -9.054688 25.898438 -7.179688 25.578125 -5.296875 C 25.253906 -3.421875 24.929688 -1.65625 24.609375 0 L 20 0 C 20.425781 -2.0625 20.875 -4.289062 21.34375 -6.6875 C 21.820312 -9.082031 22.265625 -11.503906 22.671875 -13.953125 C 22.140625 -13.128906 21.550781 -12.207031 20.90625 -11.1875 C 20.257812 -10.164062 19.613281 -9.132812 18.96875 -8.09375 C 18.320312 -7.050781 17.691406 -6.050781 17.078125 -5.09375 C 16.472656 -4.144531 15.945312 -3.335938 15.5 -2.671875 L 12.046875 -2.671875 C 11.941406 -3.273438 11.816406 -4.039062 11.671875 -4.96875 C 11.535156 -5.90625 11.378906 -6.894531 11.203125 -7.9375 C 11.035156 -8.976562 10.859375 -10.03125 10.671875 -11.09375 C 10.492188 -12.15625 10.328125 -13.109375 10.171875 -13.953125 C 9.378906 -11.503906 8.660156 -9.082031 8.015625 -6.6875 C 7.378906 -4.289062 6.789062 -2.0625 6.25 0 L 1.671875 0 C 2.128906 -1.65625 2.632812 -3.421875 3.1875 -5.296875 C 3.75 -7.179688 4.328125 -9.0625 4.921875 -10.9375 C 5.523438 -12.8125 6.117188 -14.617188 6.703125 -16.359375 C 7.296875 -18.097656 7.851562 -19.65625 8.375 -21.03125 Z M 12.625 -21.03125 "/></g></g></g><g fill="#dd1e1e" fill-opacity="0.4"><g transform="translate(30.222545, 49.833066)"><g><path d="M 17.078125 -6.890625 C 16.796875 -5.734375 16.710938 -4.570312 16.828125 -3.40625 C 16.953125 -2.25 17.1875 -1.210938 17.53125 -0.296875 L 13.5 0.265625 C 13.382812 0.0234375 13.273438 -0.203125 13.171875 -0.421875 C 13.066406 -0.648438 12.960938 -0.90625 12.859375 -1.1875 C 12.296875 -0.71875 11.671875 -0.332031 10.984375 -0.03125 C 10.296875 0.269531 9.523438 0.421875 8.671875 0.421875 C 7.660156 0.421875 6.796875 0.242188 6.078125 -0.109375 C 5.359375 -0.460938 4.769531 -0.9375 4.3125 -1.53125 C 3.863281 -2.125 3.535156 -2.820312 3.328125 -3.625 C 3.128906 -4.425781 3.03125 -5.28125 3.03125 -6.1875 C 3.03125 -7.582031 3.273438 -8.894531 3.765625 -10.125 C 4.265625 -11.363281 4.953125 -12.441406 5.828125 -13.359375 C 6.710938 -14.285156 7.75 -15.007812 8.9375 -15.53125 C 10.132812 -16.0625 11.429688 -16.328125 12.828125 -16.328125 C 13.015625 -16.328125 13.332031 -16.316406 13.78125 -16.296875 C 14.238281 -16.273438 14.757812 -16.226562 15.34375 -16.15625 C 15.9375 -16.082031 16.554688 -15.960938 17.203125 -15.796875 C 17.847656 -15.640625 18.46875 -15.421875 19.0625 -15.140625 Z M 13.921875 -12.46875 C 13.660156 -12.507812 13.421875 -12.539062 13.203125 -12.5625 C 12.992188 -12.582031 12.738281 -12.59375 12.4375 -12.59375 C 11.75 -12.59375 11.109375 -12.421875 10.515625 -12.078125 C 9.921875 -11.734375 9.398438 -11.28125 8.953125 -10.71875 C 8.503906 -10.164062 8.15625 -9.523438 7.90625 -8.796875 C 7.65625 -8.066406 7.53125 -7.3125 7.53125 -6.53125 C 7.53125 -5.550781 7.691406 -4.78125 8.015625 -4.21875 C 8.335938 -3.65625 8.929688 -3.375 9.796875 -3.375 C 10.265625 -3.375 10.6875 -3.460938 11.0625 -3.640625 C 11.4375 -3.828125 11.835938 -4.128906 12.265625 -4.546875 C 12.296875 -5.054688 12.359375 -5.585938 12.453125 -6.140625 C 12.546875 -6.703125 12.644531 -7.210938 12.75 -7.671875 Z M 13.921875 -12.46875 "/></g></g></g><g fill="#dd1e1e" fill-opacity="0.4"><g transform="translate(48.063596, 49.833066)"><g><path d="M 8.703125 0.421875 C 7.691406 0.421875 6.828125 0.25 6.109375 -0.09375 C 5.390625 -0.4375 4.800781 -0.90625 4.34375 -1.5 C 3.894531 -2.09375 3.5625 -2.789062 3.34375 -3.59375 C 3.132812 -4.394531 3.03125 -5.25 3.03125 -6.15625 C 3.03125 -7.53125 3.273438 -8.828125 3.765625 -10.046875 C 4.265625 -11.273438 4.945312 -12.34375 5.8125 -13.25 C 6.6875 -14.164062 7.722656 -14.882812 8.921875 -15.40625 C 10.117188 -15.9375 11.421875 -16.203125 12.828125 -16.203125 C 13.191406 -16.203125 13.53125 -16.179688 13.84375 -16.140625 C 14.164062 -16.097656 14.488281 -16.035156 14.8125 -15.953125 L 16.453125 -22.8125 L 21.15625 -23.546875 L 17.140625 -6.890625 C 16.859375 -5.734375 16.773438 -4.570312 16.890625 -3.40625 C 17.015625 -2.25 17.25 -1.210938 17.59375 -0.296875 L 13.5625 0.265625 C 13.4375 0.0234375 13.320312 -0.203125 13.21875 -0.421875 C 13.125 -0.648438 13.023438 -0.90625 12.921875 -1.1875 C 12.359375 -0.71875 11.726562 -0.332031 11.03125 -0.03125 C 10.332031 0.269531 9.554688 0.421875 8.703125 0.421875 Z M 13.921875 -12.34375 C 13.804688 -12.363281 13.703125 -12.382812 13.609375 -12.40625 C 13.515625 -12.425781 13.421875 -12.441406 13.328125 -12.453125 C 13.242188 -12.460938 13.128906 -12.46875 12.984375 -12.46875 C 12.847656 -12.46875 12.664062 -12.46875 12.4375 -12.46875 C 11.726562 -12.46875 11.070312 -12.300781 10.46875 -11.96875 C 9.863281 -11.632812 9.34375 -11.179688 8.90625 -10.609375 C 8.46875 -10.046875 8.128906 -9.40625 7.890625 -8.6875 C 7.648438 -7.96875 7.53125 -7.238281 7.53125 -6.5 C 7.53125 -5.519531 7.695312 -4.753906 8.03125 -4.203125 C 8.363281 -3.648438 8.960938 -3.375 9.828125 -3.375 C 10.296875 -3.375 10.722656 -3.460938 11.109375 -3.640625 C 11.492188 -3.828125 11.894531 -4.128906 12.3125 -4.546875 C 12.351562 -5.054688 12.421875 -5.585938 12.515625 -6.140625 C 12.609375 -6.703125 12.707031 -7.210938 12.8125 -7.671875 Z M 13.921875 -12.34375 "/></g></g></g><g fill="#dd1e1e" fill-opacity="0.4"><g transform="translate(65.965329, 49.833066)"><g><path d="M 17.078125 -6.890625 C 16.796875 -5.734375 16.710938 -4.570312 16.828125 -3.40625 C 16.953125 -2.25 17.1875 -1.210938 17.53125 -0.296875 L 13.5 0.265625 C 13.382812 0.0234375 13.273438 -0.203125 13.171875 -0.421875 C 13.066406 -0.648438 12.960938 -0.90625 12.859375 -1.1875 C 12.296875 -0.71875 11.671875 -0.332031 10.984375 -0.03125 C 10.296875 0.269531 9.523438 0.421875 8.671875 0.421875 C 7.660156 0.421875 6.796875 0.242188 6.078125 -0.109375 C 5.359375 -0.460938 4.769531 -0.9375 4.3125 -1.53125 C 3.863281 -2.125 3.535156 -2.820312 3.328125 -3.625 C 3.128906 -4.425781 3.03125 -5.28125 3.03125 -6.1875 C 3.03125 -7.582031 3.273438 -8.894531 3.765625 -10.125 C 4.265625 -11.363281 4.953125 -12.441406 5.828125 -13.359375 C 6.710938 -14.285156 7.75 -15.007812 8.9375 -15.53125 C 10.132812 -16.0625 11.429688 -16.328125 12.828125 -16.328125 C 13.015625 -16.328125 13.332031 -16.316406 13.78125 -16.296875 C 14.238281 -16.273438 14.757812 -16.226562 15.34375 -16.15625 C 15.9375 -16.082031 16.554688 -15.960938 17.203125 -15.796875 C 17.847656 -15.640625 18.46875 -15.421875 19.0625 -15.140625 Z M 13.921875 -12.46875 C 13.660156 -12.507812 13.421875 -12.539062 13.203125 -12.5625 C 12.992188 -12.582031 12.738281 -12.59375 12.4375 -12.59375 C 11.75 -12.59375 11.109375 -12.421875 10.515625 -12.078125 C 9.921875 -11.734375 9.398438 -11.28125 8.953125 -10.71875 C 8.503906 -10.164062 8.15625 -9.523438 7.90625 -8.796875 C 7.65625 -8.066406 7.53125 -7.3125 7.53125 -6.53125 C 7.53125 -5.550781 7.691406 -4.78125 8.015625 -4.21875 C 8.335938 -3.65625 8.929688 -3.375 9.796875 -3.375 C 10.265625 -3.375 10.6875 -3.460938 11.0625 -3.640625 C 11.4375 -3.828125 11.835938 -4.128906 12.265625 -4.546875 C 12.296875 -5.054688 12.359375 -5.585938 12.453125 -6.140625 C 12.546875 -6.703125 12.644531 -7.210938 12.75 -7.671875 Z M 13.921875 -12.46875 "/></g></g></g><g fill="#dd1e1e" fill-opacity="0.4"><g transform="translate(83.80638, 49.833066)"><g><path d="M 5.796875 -15.234375 C 6.140625 -15.335938 6.507812 -15.453125 6.90625 -15.578125 C 7.300781 -15.710938 7.742188 -15.832031 8.234375 -15.9375 C 8.734375 -16.050781 9.289062 -16.144531 9.90625 -16.21875 C 10.519531 -16.289062 11.234375 -16.328125 12.046875 -16.328125 C 13.015625 -16.328125 13.816406 -16.203125 14.453125 -15.953125 C 15.097656 -15.710938 15.679688 -15.351562 16.203125 -14.875 C 16.953125 -15.289062 17.695312 -15.632812 18.4375 -15.90625 C 19.175781 -16.1875 20.039062 -16.328125 21.03125 -16.328125 C 21.976562 -16.328125 22.789062 -16.195312 23.46875 -15.9375 C 24.144531 -15.6875 24.707031 -15.320312 25.15625 -14.84375 C 25.601562 -14.375 25.925781 -13.8125 26.125 -13.15625 C 26.320312 -12.5 26.421875 -11.773438 26.421875 -10.984375 C 26.421875 -10.617188 26.394531 -10.234375 26.34375 -9.828125 C 26.300781 -9.421875 26.226562 -9.019531 26.125 -8.625 L 24.0625 0 L 19.546875 0 L 21.546875 -8.4375 C 21.609375 -8.71875 21.671875 -9.035156 21.734375 -9.390625 C 21.804688 -9.742188 21.84375 -10.09375 21.84375 -10.4375 C 21.84375 -11 21.710938 -11.488281 21.453125 -11.90625 C 21.191406 -12.320312 20.675781 -12.53125 19.90625 -12.53125 C 19.476562 -12.53125 19.070312 -12.453125 18.6875 -12.296875 C 18.300781 -12.148438 17.957031 -11.992188 17.65625 -11.828125 C 17.695312 -11.671875 17.71875 -11.519531 17.71875 -11.375 C 17.71875 -11.238281 17.71875 -11.109375 17.71875 -10.984375 C 17.71875 -10.617188 17.691406 -10.234375 17.640625 -9.828125 C 17.585938 -9.421875 17.515625 -9.019531 17.421875 -8.625 L 15.359375 0 L 10.828125 0 L 12.828125 -8.4375 C 12.890625 -8.71875 12.957031 -9.035156 13.03125 -9.390625 C 13.101562 -9.742188 13.140625 -10.09375 13.140625 -10.4375 C 13.140625 -11 13.003906 -11.488281 12.734375 -11.90625 C 12.472656 -12.320312 11.960938 -12.53125 11.203125 -12.53125 C 10.878906 -12.53125 10.601562 -12.515625 10.375 -12.484375 C 10.15625 -12.453125 9.894531 -12.40625 9.59375 -12.34375 L 6.640625 0 L 2.125 0 Z M 5.796875 -15.234375 "/></g></g></g><g fill="#dd1e1e" fill-opacity="0.4"><g transform="translate(109.475644, 49.833066)"><g><path d="M 7.3125 -4.609375 C 7.25 -2.847656 6.804688 -1.179688 5.984375 0.390625 C 5.171875 1.972656 4.175781 3.492188 3 4.953125 L -0.296875 4.0625 C 0.460938 2.726562 1.101562 1.34375 1.625 -0.09375 C 2.15625 -1.53125 2.472656 -3.035156 2.578125 -4.609375 Z M 7.3125 -4.609375 "/></g></g></g><g fill="#dd1e1e" fill-opacity="0.4"><g transform="translate(117.091464, 49.833066)"><g/></g></g><g fill="#dd1e1e" fill-opacity="0.4"><g transform="translate(124.373524, 49.833066)"><g><path d="M 7.3125 -21.03125 L 12.046875 -21.03125 L 6.984375 0 L 2.28125 0 Z M 7.3125 -21.03125 "/></g></g></g><g fill="#dd1e1e" fill-opacity="0.4"><g transform="translate(133.840208, 49.833066)"><g><path d="M 11.34375 -23.0625 L 10.796875 -20.8125 C 10.578125 -19.84375 10.25 -18.78125 9.8125 -17.625 C 9.375 -16.476562 8.925781 -15.316406 8.46875 -14.140625 L 5.46875 -14.140625 C 5.539062 -15.316406 5.648438 -16.476562 5.796875 -17.625 C 5.941406 -18.78125 6.125 -19.851562 6.34375 -20.84375 L 6.890625 -23.0625 Z M 11.34375 -23.0625 "/></g></g></g><g fill="#dd1e1e" fill-opacity="0.4"><g transform="translate(142.153893, 49.833066)"><g><path d="M 5.796875 -15.234375 C 6.140625 -15.335938 6.507812 -15.453125 6.90625 -15.578125 C 7.300781 -15.710938 7.742188 -15.832031 8.234375 -15.9375 C 8.734375 -16.050781 9.289062 -16.144531 9.90625 -16.21875 C 10.519531 -16.289062 11.234375 -16.328125 12.046875 -16.328125 C 13.015625 -16.328125 13.816406 -16.203125 14.453125 -15.953125 C 15.097656 -15.710938 15.679688 -15.351562 16.203125 -14.875 C 16.953125 -15.289062 17.695312 -15.632812 18.4375 -15.90625 C 19.175781 -16.1875 20.039062 -16.328125 21.03125 -16.328125 C 21.976562 -16.328125 22.789062 -16.195312 23.46875 -15.9375 C 24.144531 -15.6875 24.707031 -15.320312 25.15625 -14.84375 C 25.601562 -14.375 25.925781 -13.8125 26.125 -13.15625 C 26.320312 -12.5 26.421875 -11.773438 26.421875 -10.984375 C 26.421875 -10.617188 26.394531 -10.234375 26.34375 -9.828125 C 26.300781 -9.421875 26.226562 -9.019531 26.125 -8.625 L 24.0625 0 L 19.546875 0 L 21.546875 -8.4375 C 21.609375 -8.71875 21.671875 -9.035156 21.734375 -9.390625 C 21.804688 -9.742188 21.84375 -10.09375 21.84375 -10.4375 C 21.84375 -11 21.710938 -11.488281 21.453125 -11.90625 C 21.191406 -12.320312 20.675781 -12.53125 19.90625 -12.53125 C 19.476562 -12.53125 19.070312 -12.453125 18.6875 -12.296875 C 18.300781 -12.148438 17.957031 -11.992188 17.65625 -11.828125 C 17.695312 -11.671875 17.71875 -11.519531 17.71875 -11.375 C 17.71875 -11.238281 17.71875 -11.109375 17.71875 -10.984375 C 17.71875 -10.617188 17.691406 -10.234375 17.640625 -9.828125 C 17.585938 -9.421875 17.515625 -9.019531 17.421875 -8.625 L 15.359375 0 L 10.828125 0 L 12.828125 -8.4375 C 12.890625 -8.71875 12.957031 -9.035156 13.03125 -9.390625 C 13.101562 -9.742188 13.140625 -10.09375 13.140625 -10.4375 C 13.140625 -11 13.003906 -11.488281 12.734375 -11.90625 C 12.472656 -12.320312 11.960938 -12.53125 11.203125 -12.53125 C 10.878906 -12.53125 10.601562 -12.515625 10.375 -12.484375 C 10.15625 -12.453125 9.894531 -12.40625 9.59375 -12.34375 L 6.640625 0 L 2.125 0 Z M 5.796875 -15.234375 "/></g></g></g><g fill="#dd1e1e" fill-opacity="0.4"><g transform="translate(167.823157, 49.833066)"><g/></g></g><g fill="#dd1e1e" fill-opacity="0.4"><g transform="translate(175.105217, 49.833066)"><g><path d="M 17.078125 -6.890625 C 16.796875 -5.734375 16.710938 -4.570312 16.828125 -3.40625 C 16.953125 -2.25 17.1875 -1.210938 17.53125 -0.296875 L 13.5 0.265625 C 13.382812 0.0234375 13.273438 -0.203125 13.171875 -0.421875 C 13.066406 -0.648438 12.960938 -0.90625 12.859375 -1.1875 C 12.296875 -0.71875 11.671875 -0.332031 10.984375 -0.03125 C 10.296875 0.269531 9.523438 0.421875 8.671875 0.421875 C 7.660156 0.421875 6.796875 0.242188 6.078125 -0.109375 C 5.359375 -0.460938 4.769531 -0.9375 4.3125 -1.53125 C 3.863281 -2.125 3.535156 -2.820312 3.328125 -3.625 C 3.128906 -4.425781 3.03125 -5.28125 3.03125 -6.1875 C 3.03125 -7.582031 3.273438 -8.894531 3.765625 -10.125 C 4.265625 -11.363281 4.953125 -12.441406 5.828125 -13.359375 C 6.710938 -14.285156 7.75 -15.007812 8.9375 -15.53125 C 10.132812 -16.0625 11.429688 -16.328125 12.828125 -16.328125 C 13.015625 -16.328125 13.332031 -16.316406 13.78125 -16.296875 C 14.238281 -16.273438 14.757812 -16.226562 15.34375 -16.15625 C 15.9375 -16.082031 16.554688 -15.960938 17.203125 -15.796875 C 17.847656 -15.640625 18.46875 -15.421875 19.0625 -15.140625 Z M 13.921875 -12.46875 C 13.660156 -12.507812 13.421875 -12.539062 13.203125 -12.5625 C 12.992188 -12.582031 12.738281 -12.59375 12.4375 -12.59375 C 11.75 -12.59375 11.109375 -12.421875 10.515625 -12.078125 C 9.921875 -11.734375 9.398438 -11.28125 8.953125 -10.71875 C 8.503906 -10.164062 8.15625 -9.523438 7.90625 -8.796875 C 7.65625 -8.066406 7.53125 -7.3125 7.53125 -6.53125 C 7.53125 -5.550781 7.691406 -4.78125 8.015625 -4.21875 C 8.335938 -3.65625 8.929688 -3.375 9.796875 -3.375 C 10.265625 -3.375 10.6875 -3.460938 11.0625 -3.640625 C 11.4375 -3.828125 11.835938 -4.128906 12.265625 -4.546875 C 12.296875 -5.054688 12.359375 -5.585938 12.453125 -6.140625 C 12.546875 -6.703125 12.644531 -7.210938 12.75 -7.671875 Z M 13.921875 -12.46875 "/></g></g></g><g fill="#dd1e1e" fill-opacity="0.4"><g transform="translate(192.946268, 49.833066)"><g><path d="M 8.703125 0.421875 C 7.691406 0.421875 6.828125 0.25 6.109375 -0.09375 C 5.390625 -0.4375 4.800781 -0.90625 4.34375 -1.5 C 3.894531 -2.09375 3.5625 -2.789062 3.34375 -3.59375 C 3.132812 -4.394531 3.03125 -5.25 3.03125 -6.15625 C 3.03125 -7.53125 3.273438 -8.828125 3.765625 -10.046875 C 4.265625 -11.273438 4.945312 -12.34375 5.8125 -13.25 C 6.6875 -14.164062 7.722656 -14.882812 8.921875 -15.40625 C 10.117188 -15.9375 11.421875 -16.203125 12.828125 -16.203125 C 13.191406 -16.203125 13.53125 -16.179688 13.84375 -16.140625 C 14.164062 -16.097656 14.488281 -16.035156 14.8125 -15.953125 L 16.453125 -22.8125 L 21.15625 -23.546875 L 17.140625 -6.890625 C 16.859375 -5.734375 16.773438 -4.570312 16.890625 -3.40625 C 17.015625 -2.25 17.25 -1.210938 17.59375 -0.296875 L 13.5625 0.265625 C 13.4375 0.0234375 13.320312 -0.203125 13.21875 -0.421875 C 13.125 -0.648438 13.023438 -0.90625 12.921875 -1.1875 C 12.359375 -0.71875 11.726562 -0.332031 11.03125 -0.03125 C 10.332031 0.269531 9.554688 0.421875 8.703125 0.421875 Z M 13.921875 -12.34375 C 13.804688 -12.363281 13.703125 -12.382812 13.609375 -12.40625 C 13.515625 -12.425781 13.421875 -12.441406 13.328125 -12.453125 C 13.242188 -12.460938 13.128906 -12.46875 12.984375 -12.46875 C 12.847656 -12.46875 12.664062 -12.46875 12.4375 -12.46875 C 11.726562 -12.46875 11.070312 -12.300781 10.46875 -11.96875 C 9.863281 -11.632812 9.34375 -11.179688 8.90625 -10.609375 C 8.46875 -10.046875 8.128906 -9.40625 7.890625 -8.6875 C 7.648438 -7.96875 7.53125 -7.238281 7.53125 -6.5 C 7.53125 -5.519531 7.695312 -4.753906 8.03125 -4.203125 C 8.363281 -3.648438 8.960938 -3.375 9.828125 -3.375 C 10.296875 -3.375 10.722656 -3.460938 11.109375 -3.640625 C 11.492188 -3.828125 11.894531 -4.128906 12.3125 -4.546875 C 12.351562 -5.054688 12.421875 -5.585938 12.515625 -6.140625 C 12.609375 -6.703125 12.707031 -7.210938 12.8125 -7.671875 Z M 13.921875 -12.34375 "/></g></g></g><g fill="#dd1e1e" fill-opacity="0.4"><g transform="translate(210.848013, 49.833066)"><g><path d="M 17.078125 -6.890625 C 16.796875 -5.734375 16.710938 -4.570312 16.828125 -3.40625 C 16.953125 -2.25 17.1875 -1.210938 17.53125 -0.296875 L 13.5 0.265625 C 13.382812 0.0234375 13.273438 -0.203125 13.171875 -0.421875 C 13.066406 -0.648438 12.960938 -0.90625 12.859375 -1.1875 C 12.296875 -0.71875 11.671875 -0.332031 10.984375 -0.03125 C 10.296875 0.269531 9.523438 0.421875 8.671875 0.421875 C 7.660156 0.421875 6.796875 0.242188 6.078125 -0.109375 C 5.359375 -0.460938 4.769531 -0.9375 4.3125 -1.53125 C 3.863281 -2.125 3.535156 -2.820312 3.328125 -3.625 C 3.128906 -4.425781 3.03125 -5.28125 3.03125 -6.1875 C 3.03125 -7.582031 3.273438 -8.894531 3.765625 -10.125 C 4.265625 -11.363281 4.953125 -12.441406 5.828125 -13.359375 C 6.710938 -14.285156 7.75 -15.007812 8.9375 -15.53125 C 10.132812 -16.0625 11.429688 -16.328125 12.828125 -16.328125 C 13.015625 -16.328125 13.332031 -16.316406 13.78125 -16.296875 C 14.238281 -16.273438 14.757812 -16.226562 15.34375 -16.15625 C 15.9375 -16.082031 16.554688 -15.960938 17.203125 -15.796875 C 17.847656 -15.640625 18.46875 -15.421875 19.0625 -15.140625 Z M 13.921875 -12.46875 C 13.660156 -12.507812 13.421875 -12.539062 13.203125 -12.5625 C 12.992188 -12.582031 12.738281 -12.59375 12.4375 -12.59375 C 11.75 -12.59375 11.109375 -12.421875 10.515625 -12.078125 C 9.921875 -11.734375 9.398438 -11.28125 8.953125 -10.71875 C 8.503906 -10.164062 8.15625 -9.523438 7.90625 -8.796875 C 7.65625 -8.066406 7.53125 -7.3125 7.53125 -6.53125 C 7.53125 -5.550781 7.691406 -4.78125 8.015625 -4.21875 C 8.335938 -3.65625 8.929688 -3.375 9.796875 -3.375 C 10.265625 -3.375 10.6875 -3.460938 11.0625 -3.640625 C 11.4375 -3.828125 11.835938 -4.128906 12.265625 -4.546875 C 12.296875 -5.054688 12.359375 -5.585938 12.453125 -6.140625 C 12.546875 -6.703125 12.644531 -7.210938 12.75 -7.671875 Z M 13.921875 -12.46875 "/></g></g></g><g fill="#dd1e1e" fill-opacity="0.4"><g transform="translate(228.689075, 49.833066)"><g><path d="M 12.625 -21.03125 C 12.75 -20.476562 12.90625 -19.703125 13.09375 -18.703125 C 13.28125 -17.703125 13.476562 -16.597656 13.6875 -15.390625 C 13.90625 -14.191406 14.125 -12.957031 14.34375 -11.6875 C 14.570312 -10.425781 14.773438 -9.269531 14.953125 -8.21875 C 15.640625 -9.269531 16.390625 -10.398438 17.203125 -11.609375 C 18.015625 -12.828125 18.8125 -14.023438 19.59375 -15.203125 C 20.382812 -16.378906 21.132812 -17.476562 21.84375 -18.5 C 22.550781 -19.519531 23.160156 -20.363281 23.671875 -21.03125 L 27.859375 -21.03125 C 27.710938 -19.632812 27.519531 -18.066406 27.28125 -16.328125 C 27.050781 -14.585938 26.789062 -12.785156 26.5 -10.921875 C 26.207031 -9.054688 25.898438 -7.179688 25.578125 -5.296875 C 25.253906 -3.421875 24.929688 -1.65625 24.609375 0 L 20 0 C 20.425781 -2.0625 20.875 -4.289062 21.34375 -6.6875 C 21.820312 -9.082031 22.265625 -11.503906 22.671875 -13.953125 C 22.140625 -13.128906 21.550781 -12.207031 20.90625 -11.1875 C 20.257812 -10.164062 19.613281 -9.132812 18.96875 -8.09375 C 18.320312 -7.050781 17.691406 -6.050781 17.078125 -5.09375 C 16.472656 -4.144531 15.945312 -3.335938 15.5 -2.671875 L 12.046875 -2.671875 C 11.941406 -3.273438 11.816406 -4.039062 11.671875 -4.96875 C 11.535156 -5.90625 11.378906 -6.894531 11.203125 -7.9375 C 11.035156 -8.976562 10.859375 -10.03125 10.671875 -11.09375 C 10.492188 -12.15625 10.328125 -13.109375 10.171875 -13.953125 C 9.378906 -11.503906 8.660156 -9.082031 8.015625 -6.6875 C 7.378906 -4.289062 6.789062 -2.0625 6.25 0 L 1.671875 0 C 2.128906 -1.65625 2.632812 -3.421875 3.1875 -5.296875 C 3.75 -7.179688 4.328125 -9.0625 4.921875 -10.9375 C 5.523438 -12.8125 6.117188 -14.617188 6.703125 -16.359375 C 7.296875 -18.097656 7.851562 -19.65625 8.375 -21.03125 Z M 12.625 -21.03125 "/></g></g></g><g fill="#dd1e1e" fill-opacity="1"><g transform="translate(2.241064, 48.491791)"><g><path d="M 12.625 -21.03125 C 12.75 -20.476562 12.90625 -19.703125 13.09375 -18.703125 C 13.28125 -17.703125 13.476562 -16.597656 13.6875 -15.390625 C 13.90625 -14.191406 14.125 -12.957031 14.34375 -11.6875 C 14.570312 -10.425781 14.773438 -9.269531 14.953125 -8.21875 C 15.640625 -9.269531 16.390625 -10.398438 17.203125 -11.609375 C 18.015625 -12.828125 18.8125 -14.023438 19.59375 -15.203125 C 20.382812 -16.378906 21.132812 -17.476562 21.84375 -18.5 C 22.550781 -19.519531 23.160156 -20.363281 23.671875 -21.03125 L 27.859375 -21.03125 C 27.710938 -19.632812 27.519531 -18.066406 27.28125 -16.328125 C 27.050781 -14.585938 26.789062 -12.785156 26.5 -10.921875 C 26.207031 -9.054688 25.898438 -7.179688 25.578125 -5.296875 C 25.253906 -3.421875 24.929688 -1.65625 24.609375 0 L 20 0 C 20.425781 -2.0625 20.875 -4.289062 21.34375 -6.6875 C 21.820312 -9.082031 22.265625 -11.503906 22.671875 -13.953125 C 22.140625 -13.128906 21.550781 -12.207031 20.90625 -11.1875 C 20.257812 -10.164062 19.613281 -9.132812 18.96875 -8.09375 C 18.320312 -7.050781 17.691406 -6.050781 17.078125 -5.09375 C 16.472656 -4.144531 15.945312 -3.335938 15.5 -2.671875 L 12.046875 -2.671875 C 11.941406 -3.273438 11.816406 -4.039062 11.671875 -4.96875 C 11.535156 -5.90625 11.378906 -6.894531 11.203125 -7.9375 C 11.035156 -8.976562 10.859375 -10.03125 10.671875 -11.09375 C 10.492188 -12.15625 10.328125 -13.109375 10.171875 -13.953125 C 9.378906 -11.503906 8.660156 -9.082031 8.015625 -6.6875 C 7.378906 -4.289062 6.789062 -2.0625 6.25 0 L 1.671875 0 C 2.128906 -1.65625 2.632812 -3.421875 3.1875 -5.296875 C 3.75 -7.179688 4.328125 -9.0625 4.921875 -10.9375 C 5.523438 -12.8125 6.117188 -14.617188 6.703125 -16.359375 C 7.296875 -18.097656 7.851562 -19.65625 8.375 -21.03125 Z M 12.625 -21.03125 "/></g></g></g><g fill="#dd1e1e" fill-opacity="1"><g transform="translate(28.881269, 48.491791)"><g><path d="M 17.078125 -6.890625 C 16.796875 -5.734375 16.710938 -4.570312 16.828125 -3.40625 C 16.953125 -2.25 17.1875 -1.210938 17.53125 -0.296875 L 13.5 0.265625 C 13.382812 0.0234375 13.273438 -0.203125 13.171875 -0.421875 C 13.066406 -0.648438 12.960938 -0.90625 12.859375 -1.1875 C 12.296875 -0.71875 11.671875 -0.332031 10.984375 -0.03125 C 10.296875 0.269531 9.523438 0.421875 8.671875 0.421875 C 7.660156 0.421875 6.796875 0.242188 6.078125 -0.109375 C 5.359375 -0.460938 4.769531 -0.9375 4.3125 -1.53125 C 3.863281 -2.125 3.535156 -2.820312 3.328125 -3.625 C 3.128906 -4.425781 3.03125 -5.28125 3.03125 -6.1875 C 3.03125 -7.582031 3.273438 -8.894531 3.765625 -10.125 C 4.265625 -11.363281 4.953125 -12.441406 5.828125 -13.359375 C 6.710938 -14.285156 7.75 -15.007812 8.9375 -15.53125 C 10.132812 -16.0625 11.429688 -16.328125 12.828125 -16.328125 C 13.015625 -16.328125 13.332031 -16.316406 13.78125 -16.296875 C 14.238281 -16.273438 14.757812 -16.226562 15.34375 -16.15625 C 15.9375 -16.082031 16.554688 -15.960938 17.203125 -15.796875 C 17.847656 -15.640625 18.46875 -15.421875 19.0625 -15.140625 Z M 13.921875 -12.46875 C 13.660156 -12.507812 13.421875 -12.539062 13.203125 -12.5625 C 12.992188 -12.582031 12.738281 -12.59375 12.4375 -12.59375 C 11.75 -12.59375 11.109375 -12.421875 10.515625 -12.078125 C 9.921875 -11.734375 9.398438 -11.28125 8.953125 -10.71875 C 8.503906 -10.164062 8.15625 -9.523438 7.90625 -8.796875 C 7.65625 -8.066406 7.53125 -7.3125 7.53125 -6.53125 C 7.53125 -5.550781 7.691406 -4.78125 8.015625 -4.21875 C 8.335938 -3.65625 8.929688 -3.375 9.796875 -3.375 C 10.265625 -3.375 10.6875 -3.460938 11.0625 -3.640625 C 11.4375 -3.828125 11.835938 -4.128906 12.265625 -4.546875 C 12.296875 -5.054688 12.359375 -5.585938 12.453125 -6.140625 C 12.546875 -6.703125 12.644531 -7.210938 12.75 -7.671875 Z M 13.921875 -12.46875 "/></g></g></g><g fill="#dd1e1e" fill-opacity="1"><g transform="translate(46.72232, 48.491791)"><g><path d="M 8.703125 0.421875 C 7.691406 0.421875 6.828125 0.25 6.109375 -0.09375 C 5.390625 -0.4375 4.800781 -0.90625 4.34375 -1.5 C 3.894531 -2.09375 3.5625 -2.789062 3.34375 -3.59375 C 3.132812 -4.394531 3.03125 -5.25 3.03125 -6.15625 C 3.03125 -7.53125 3.273438 -8.828125 3.765625 -10.046875 C 4.265625 -11.273438 4.945312 -12.34375 5.8125 -13.25 C 6.6875 -14.164062 7.722656 -14.882812 8.921875 -15.40625 C 10.117188 -15.9375 11.421875 -16.203125 12.828125 -16.203125 C 13.191406 -16.203125 13.53125 -16.179688 13.84375 -16.140625 C 14.164062 -16.097656 14.488281 -16.035156 14.8125 -15.953125 L 16.453125 -22.8125 L 21.15625 -23.546875 L 17.140625 -6.890625 C 16.859375 -5.734375 16.773438 -4.570312 16.890625 -3.40625 C 17.015625 -2.25 17.25 -1.210938 17.59375 -0.296875 L 13.5625 0.265625 C 13.4375 0.0234375 13.320312 -0.203125 13.21875 -0.421875 C 13.125 -0.648438 13.023438 -0.90625 12.921875 -1.1875 C 12.359375 -0.71875 11.726562 -0.332031 11.03125 -0.03125 C 10.332031 0.269531 9.554688 0.421875 8.703125 0.421875 Z M 13.921875 -12.34375 C 13.804688 -12.363281 13.703125 -12.382812 13.609375 -12.40625 C 13.515625 -12.425781 13.421875 -12.441406 13.328125 -12.453125 C 13.242188 -12.460938 13.128906 -12.46875 12.984375 -12.46875 C 12.847656 -12.46875 12.664062 -12.46875 12.4375 -12.46875 C 11.726562 -12.46875 11.070312 -12.300781 10.46875 -11.96875 C 9.863281 -11.632812 9.34375 -11.179688 8.90625 -10.609375 C 8.46875 -10.046875 8.128906 -9.40625 7.890625 -8.6875 C 7.648438 -7.96875 7.53125 -7.238281 7.53125 -6.5 C 7.53125 -5.519531 7.695312 -4.753906 8.03125 -4.203125 C 8.363281 -3.648438 8.960938 -3.375 9.828125 -3.375 C 10.296875 -3.375 10.722656 -3.460938 11.109375 -3.640625 C 11.492188 -3.828125 11.894531 -4.128906 12.3125 -4.546875 C 12.351562 -5.054688 12.421875 -5.585938 12.515625 -6.140625 C 12.609375 -6.703125 12.707031 -7.210938 12.8125 -7.671875 Z M 13.921875 -12.34375 "/></g></g></g><g fill="#dd1e1e" fill-opacity="1"><g transform="translate(64.624054, 48.491791)"><g><path d="M 17.078125 -6.890625 C 16.796875 -5.734375 16.710938 -4.570312 16.828125 -3.40625 C 16.953125 -2.25 17.1875 -1.210938 17.53125 -0.296875 L 13.5 0.265625 C 13.382812 0.0234375 13.273438 -0.203125 13.171875 -0.421875 C 13.066406 -0.648438 12.960938 -0.90625 12.859375 -1.1875 C 12.296875 -0.71875 11.671875 -0.332031 10.984375 -0.03125 C 10.296875 0.269531 9.523438 0.421875 8.671875 0.421875 C 7.660156 0.421875 6.796875 0.242188 6.078125 -0.109375 C 5.359375 -0.460938 4.769531 -0.9375 4.3125 -1.53125 C 3.863281 -2.125 3.535156 -2.820312 3.328125 -3.625 C 3.128906 -4.425781 3.03125 -5.28125 3.03125 -6.1875 C 3.03125 -7.582031 3.273438 -8.894531 3.765625 -10.125 C 4.265625 -11.363281 4.953125 -12.441406 5.828125 -13.359375 C 6.710938 -14.285156 7.75 -15.007812 8.9375 -15.53125 C 10.132812 -16.0625 11.429688 -16.328125 12.828125 -16.328125 C 13.015625 -16.328125 13.332031 -16.316406 13.78125 -16.296875 C 14.238281 -16.273438 14.757812 -16.226562 15.34375 -16.15625 C 15.9375 -16.082031 16.554688 -15.960938 17.203125 -15.796875 C 17.847656 -15.640625 18.46875 -15.421875 19.0625 -15.140625 Z M 13.921875 -12.46875 C 13.660156 -12.507812 13.421875 -12.539062 13.203125 -12.5625 C 12.992188 -12.582031 12.738281 -12.59375 12.4375 -12.59375 C 11.75 -12.59375 11.109375 -12.421875 10.515625 -12.078125 C 9.921875 -11.734375 9.398438 -11.28125 8.953125 -10.71875 C 8.503906 -10.164062 8.15625 -9.523438 7.90625 -8.796875 C 7.65625 -8.066406 7.53125 -7.3125 7.53125 -6.53125 C 7.53125 -5.550781 7.691406 -4.78125 8.015625 -4.21875 C 8.335938 -3.65625 8.929688 -3.375 9.796875 -3.375 C 10.265625 -3.375 10.6875 -3.460938 11.0625 -3.640625 C 11.4375 -3.828125 11.835938 -4.128906 12.265625 -4.546875 C 12.296875 -5.054688 12.359375 -5.585938 12.453125 -6.140625 C 12.546875 -6.703125 12.644531 -7.210938 12.75 -7.671875 Z M 13.921875 -12.46875 "/></g></g></g><g fill="#dd1e1e" fill-opacity="1"><g transform="translate(82.465105, 48.491791)"><g><path d="M 5.796875 -15.234375 C 6.140625 -15.335938 6.507812 -15.453125 6.90625 -15.578125 C 7.300781 -15.710938 7.742188 -15.832031 8.234375 -15.9375 C 8.734375 -16.050781 9.289062 -16.144531 9.90625 -16.21875 C 10.519531 -16.289062 11.234375 -16.328125 12.046875 -16.328125 C 13.015625 -16.328125 13.816406 -16.203125 14.453125 -15.953125 C 15.097656 -15.710938 15.679688 -15.351562 16.203125 -14.875 C 16.953125 -15.289062 17.695312 -15.632812 18.4375 -15.90625 C 19.175781 -16.1875 20.039062 -16.328125 21.03125 -16.328125 C 21.976562 -16.328125 22.789062 -16.195312 23.46875 -15.9375 C 24.144531 -15.6875 24.707031 -15.320312 25.15625 -14.84375 C 25.601562 -14.375 25.925781 -13.8125 26.125 -13.15625 C 26.320312 -12.5 26.421875 -11.773438 26.421875 -10.984375 C 26.421875 -10.617188 26.394531 -10.234375 26.34375 -9.828125 C 26.300781 -9.421875 26.226562 -9.019531 26.125 -8.625 L 24.0625 0 L 19.546875 0 L 21.546875 -8.4375 C 21.609375 -8.71875 21.671875 -9.035156 21.734375 -9.390625 C 21.804688 -9.742188 21.84375 -10.09375 21.84375 -10.4375 C 21.84375 -11 21.710938 -11.488281 21.453125 -11.90625 C 21.191406 -12.320312 20.675781 -12.53125 19.90625 -12.53125 C 19.476562 -12.53125 19.070312 -12.453125 18.6875 -12.296875 C 18.300781 -12.148438 17.957031 -11.992188 17.65625 -11.828125 C 17.695312 -11.671875 17.71875 -11.519531 17.71875 -11.375 C 17.71875 -11.238281 17.71875 -11.109375 17.71875 -10.984375 C 17.71875 -10.617188 17.691406 -10.234375 17.640625 -9.828125 C 17.585938 -9.421875 17.515625 -9.019531 17.421875 -8.625 L 15.359375 0 L 10.828125 0 L 12.828125 -8.4375 C 12.890625 -8.71875 12.957031 -9.035156 13.03125 -9.390625 C 13.101562 -9.742188 13.140625 -10.09375 13.140625 -10.4375 C 13.140625 -11 13.003906 -11.488281 12.734375 -11.90625 C 12.472656 -12.320312 11.960938 -12.53125 11.203125 -12.53125 C 10.878906 -12.53125 10.601562 -12.515625 10.375 -12.484375 C 10.15625 -12.453125 9.894531 -12.40625 9.59375 -12.34375 L 6.640625 0 L 2.125 0 Z M 5.796875 -15.234375 "/></g></g></g><g fill="#dd1e1e" fill-opacity="1"><g transform="translate(108.134369, 48.491791)"><g><path d="M 7.3125 -4.609375 C 7.25 -2.847656 6.804688 -1.179688 5.984375 0.390625 C 5.171875 1.972656 4.175781 3.492188 3 4.953125 L -0.296875 4.0625 C 0.460938 2.726562 1.101562 1.34375 1.625 -0.09375 C 2.15625 -1.53125 2.472656 -3.035156 2.578125 -4.609375 Z M 7.3125 -4.609375 "/></g></g></g><g fill="#dd1e1e" fill-opacity="1"><g transform="translate(115.750188, 48.491791)"><g/></g></g><g fill="#dd1e1e" fill-opacity="1"><g transform="translate(123.032249, 48.491791)"><g><path d="M 7.3125 -21.03125 L 12.046875 -21.03125 L 6.984375 0 L 2.28125 0 Z M 7.3125 -21.03125 "/></g></g></g><g fill="#dd1e1e" fill-opacity="1"><g transform="translate(132.498933, 48.491791)"><g><path d="M 11.34375 -23.0625 L 10.796875 -20.8125 C 10.578125 -19.84375 10.25 -18.78125 9.8125 -17.625 C 9.375 -16.476562 8.925781 -15.316406 8.46875 -14.140625 L 5.46875 -14.140625 C 5.539062 -15.316406 5.648438 -16.476562 5.796875 -17.625 C 5.941406 -18.78125 6.125 -19.851562 6.34375 -20.84375 L 6.890625 -23.0625 Z M 11.34375 -23.0625 "/></g></g></g><g fill="#dd1e1e" fill-opacity="1"><g transform="translate(140.812617, 48.491791)"><g><path d="M 5.796875 -15.234375 C 6.140625 -15.335938 6.507812 -15.453125 6.90625 -15.578125 C 7.300781 -15.710938 7.742188 -15.832031 8.234375 -15.9375 C 8.734375 -16.050781 9.289062 -16.144531 9.90625 -16.21875 C 10.519531 -16.289062 11.234375 -16.328125 12.046875 -16.328125 C 13.015625 -16.328125 13.816406 -16.203125 14.453125 -15.953125 C 15.097656 -15.710938 15.679688 -15.351562 16.203125 -14.875 C 16.953125 -15.289062 17.695312 -15.632812 18.4375 -15.90625 C 19.175781 -16.1875 20.039062 -16.328125 21.03125 -16.328125 C 21.976562 -16.328125 22.789062 -16.195312 23.46875 -15.9375 C 24.144531 -15.6875 24.707031 -15.320312 25.15625 -14.84375 C 25.601562 -14.375 25.925781 -13.8125 26.125 -13.15625 C 26.320312 -12.5 26.421875 -11.773438 26.421875 -10.984375 C 26.421875 -10.617188 26.394531 -10.234375 26.34375 -9.828125 C 26.300781 -9.421875 26.226562 -9.019531 26.125 -8.625 L 24.0625 0 L 19.546875 0 L 21.546875 -8.4375 C 21.609375 -8.71875 21.671875 -9.035156 21.734375 -9.390625 C 21.804688 -9.742188 21.84375 -10.09375 21.84375 -10.4375 C 21.84375 -11 21.710938 -11.488281 21.453125 -11.90625 C 21.191406 -12.320312 20.675781 -12.53125 19.90625 -12.53125 C 19.476562 -12.53125 19.070312 -12.453125 18.6875 -12.296875 C 18.300781 -12.148438 17.957031 -11.992188 17.65625 -11.828125 C 17.695312 -11.671875 17.71875 -11.519531 17.71875 -11.375 C 17.71875 -11.238281 17.71875 -11.109375 17.71875 -10.984375 C 17.71875 -10.617188 17.691406 -10.234375 17.640625 -9.828125 C 17.585938 -9.421875 17.515625 -9.019531 17.421875 -8.625 L 15.359375 0 L 10.828125 0 L 12.828125 -8.4375 C 12.890625 -8.71875 12.957031 -9.035156 13.03125 -9.390625 C 13.101562 -9.742188 13.140625 -10.09375 13.140625 -10.4375 C 13.140625 -11 13.003906 -11.488281 12.734375 -11.90625 C 12.472656 -12.320312 11.960938 -12.53125 11.203125 -12.53125 C 10.878906 -12.53125 10.601562 -12.515625 10.375 -12.484375 C 10.15625 -12.453125 9.894531 -12.40625 9.59375 -12.34375 L 6.640625 0 L 2.125 0 Z M 5.796875 -15.234375 "/></g></g></g><g fill="#dd1e1e" fill-opacity="1"><g transform="translate(166.481881, 48.491791)"><g/></g></g><g fill="#dd1e1e" fill-opacity="1"><g transform="translate(173.763942, 48.491791)"><g><path d="M 17.078125 -6.890625 C 16.796875 -5.734375 16.710938 -4.570312 16.828125 -3.40625 C 16.953125 -2.25 17.1875 -1.210938 17.53125 -0.296875 L 13.5 0.265625 C 13.382812 0.0234375 13.273438 -0.203125 13.171875 -0.421875 C 13.066406 -0.648438 12.960938 -0.90625 12.859375 -1.1875 C 12.296875 -0.71875 11.671875 -0.332031 10.984375 -0.03125 C 10.296875 0.269531 9.523438 0.421875 8.671875 0.421875 C 7.660156 0.421875 6.796875 0.242188 6.078125 -0.109375 C 5.359375 -0.460938 4.769531 -0.9375 4.3125 -1.53125 C 3.863281 -2.125 3.535156 -2.820312 3.328125 -3.625 C 3.128906 -4.425781 3.03125 -5.28125 3.03125 -6.1875 C 3.03125 -7.582031 3.273438 -8.894531 3.765625 -10.125 C 4.265625 -11.363281 4.953125 -12.441406 5.828125 -13.359375 C 6.710938 -14.285156 7.75 -15.007812 8.9375 -15.53125 C 10.132812 -16.0625 11.429688 -16.328125 12.828125 -16.328125 C 13.015625 -16.328125 13.332031 -16.316406 13.78125 -16.296875 C 14.238281 -16.273438 14.757812 -16.226562 15.34375 -16.15625 C 15.9375 -16.082031 16.554688 -15.960938 17.203125 -15.796875 C 17.847656 -15.640625 18.46875 -15.421875 19.0625 -15.140625 Z M 13.921875 -12.46875 C 13.660156 -12.507812 13.421875 -12.539062 13.203125 -12.5625 C 12.992188 -12.582031 12.738281 -12.59375 12.4375 -12.59375 C 11.75 -12.59375 11.109375 -12.421875 10.515625 -12.078125 C 9.921875 -11.734375 9.398438 -11.28125 8.953125 -10.71875 C 8.503906 -10.164062 8.15625 -9.523438 7.90625 -8.796875 C 7.65625 -8.066406 7.53125 -7.3125 7.53125 -6.53125 C 7.53125 -5.550781 7.691406 -4.78125 8.015625 -4.21875 C 8.335938 -3.65625 8.929688 -3.375 9.796875 -3.375 C 10.265625 -3.375 10.6875 -3.460938 11.0625 -3.640625 C 11.4375 -3.828125 11.835938 -4.128906 12.265625 -4.546875 C 12.296875 -5.054688 12.359375 -5.585938 12.453125 -6.140625 C 12.546875 -6.703125 12.644531 -7.210938 12.75 -7.671875 Z M 13.921875 -12.46875 "/></g></g></g><g fill="#dd1e1e" fill-opacity="1"><g transform="translate(191.604993, 48.491791)"><g><path d="M 8.703125 0.421875 C 7.691406 0.421875 6.828125 0.25 6.109375 -0.09375 C 5.390625 -0.4375 4.800781 -0.90625 4.34375 -1.5 C 3.894531 -2.09375 3.5625 -2.789062 3.34375 -3.59375 C 3.132812 -4.394531 3.03125 -5.25 3.03125 -6.15625 C 3.03125 -7.53125 3.273438 -8.828125 3.765625 -10.046875 C 4.265625 -11.273438 4.945312 -12.34375 5.8125 -13.25 C 6.6875 -14.164062 7.722656 -14.882812 8.921875 -15.40625 C 10.117188 -15.9375 11.421875 -16.203125 12.828125 -16.203125 C 13.191406 -16.203125 13.53125 -16.179688 13.84375 -16.140625 C 14.164062 -16.097656 14.488281 -16.035156 14.8125 -15.953125 L 16.453125 -22.8125 L 21.15625 -23.546875 L 17.140625 -6.890625 C 16.859375 -5.734375 16.773438 -4.570312 16.890625 -3.40625 C 17.015625 -2.25 17.25 -1.210938 17.59375 -0.296875 L 13.5625 0.265625 C 13.4375 0.0234375 13.320312 -0.203125 13.21875 -0.421875 C 13.125 -0.648438 13.023438 -0.90625 12.921875 -1.1875 C 12.359375 -0.71875 11.726562 -0.332031 11.03125 -0.03125 C 10.332031 0.269531 9.554688 0.421875 8.703125 0.421875 Z M 13.921875 -12.34375 C 13.804688 -12.363281 13.703125 -12.382812 13.609375 -12.40625 C 13.515625 -12.425781 13.421875 -12.441406 13.328125 -12.453125 C 13.242188 -12.460938 13.128906 -12.46875 12.984375 -12.46875 C 12.847656 -12.46875 12.664062 -12.46875 12.4375 -12.46875 C 11.726562 -12.46875 11.070312 -12.300781 10.46875 -11.96875 C 9.863281 -11.632812 9.34375 -11.179688 8.90625 -10.609375 C 8.46875 -10.046875 8.128906 -9.40625 7.890625 -8.6875 C 7.648438 -7.96875 7.53125 -7.238281 7.53125 -6.5 C 7.53125 -5.519531 7.695312 -4.753906 8.03125 -4.203125 C 8.363281 -3.648438 8.960938 -3.375 9.828125 -3.375 C 10.296875 -3.375 10.722656 -3.460938 11.109375 -3.640625 C 11.492188 -3.828125 11.894531 -4.128906 12.3125 -4.546875 C 12.351562 -5.054688 12.421875 -5.585938 12.515625 -6.140625 C 12.609375 -6.703125 12.707031 -7.210938 12.8125 -7.671875 Z M 13.921875 -12.34375 "/></g></g></g><g fill="#dd1e1e" fill-opacity="1"><g transform="translate(209.506737, 48.491791)"><g><path d="M 17.078125 -6.890625 C 16.796875 -5.734375 16.710938 -4.570312 16.828125 -3.40625 C 16.953125 -2.25 17.1875 -1.210938 17.53125 -0.296875 L 13.5 0.265625 C 13.382812 0.0234375 13.273438 -0.203125 13.171875 -0.421875 C 13.066406 -0.648438 12.960938 -0.90625 12.859375 -1.1875 C 12.296875 -0.71875 11.671875 -0.332031 10.984375 -0.03125 C 10.296875 0.269531 9.523438 0.421875 8.671875 0.421875 C 7.660156 0.421875 6.796875 0.242188 6.078125 -0.109375 C 5.359375 -0.460938 4.769531 -0.9375 4.3125 -1.53125 C 3.863281 -2.125 3.535156 -2.820312 3.328125 -3.625 C 3.128906 -4.425781 3.03125 -5.28125 3.03125 -6.1875 C 3.03125 -7.582031 3.273438 -8.894531 3.765625 -10.125 C 4.265625 -11.363281 4.953125 -12.441406 5.828125 -13.359375 C 6.710938 -14.285156 7.75 -15.007812 8.9375 -15.53125 C 10.132812 -16.0625 11.429688 -16.328125 12.828125 -16.328125 C 13.015625 -16.328125 13.332031 -16.316406 13.78125 -16.296875 C 14.238281 -16.273438 14.757812 -16.226562 15.34375 -16.15625 C 15.9375 -16.082031 16.554688 -15.960938 17.203125 -15.796875 C 17.847656 -15.640625 18.46875 -15.421875 19.0625 -15.140625 Z M 13.921875 -12.46875 C 13.660156 -12.507812 13.421875 -12.539062 13.203125 -12.5625 C 12.992188 -12.582031 12.738281 -12.59375 12.4375 -12.59375 C 11.75 -12.59375 11.109375 -12.421875 10.515625 -12.078125 C 9.921875 -11.734375 9.398438 -11.28125 8.953125 -10.71875 C 8.503906 -10.164062 8.15625 -9.523438 7.90625 -8.796875 C 7.65625 -8.066406 7.53125 -7.3125 7.53125 -6.53125 C 7.53125 -5.550781 7.691406 -4.78125 8.015625 -4.21875 C 8.335938 -3.65625 8.929688 -3.375 9.796875 -3.375 C 10.265625 -3.375 10.6875 -3.460938 11.0625 -3.640625 C 11.4375 -3.828125 11.835938 -4.128906 12.265625 -4.546875 C 12.296875 -5.054688 12.359375 -5.585938 12.453125 -6.140625 C 12.546875 -6.703125 12.644531 -7.210938 12.75 -7.671875 Z M 13.921875 -12.46875 "/></g></g></g><g fill="#dd1e1e" fill-opacity="1"><g transform="translate(227.3478, 48.491791)"><g><path d="M 12.625 -21.03125 C 12.75 -20.476562 12.90625 -19.703125 13.09375 -18.703125 C 13.28125 -17.703125 13.476562 -16.597656 13.6875 -15.390625 C 13.90625 -14.191406 14.125 -12.957031 14.34375 -11.6875 C 14.570312 -10.425781 14.773438 -9.269531 14.953125 -8.21875 C 15.640625 -9.269531 16.390625 -10.398438 17.203125 -11.609375 C 18.015625 -12.828125 18.8125 -14.023438 19.59375 -15.203125 C 20.382812 -16.378906 21.132812 -17.476562 21.84375 -18.5 C 22.550781 -19.519531 23.160156 -20.363281 23.671875 -21.03125 L 27.859375 -21.03125 C 27.710938 -19.632812 27.519531 -18.066406 27.28125 -16.328125 C 27.050781 -14.585938 26.789062 -12.785156 26.5 -10.921875 C 26.207031 -9.054688 25.898438 -7.179688 25.578125 -5.296875 C 25.253906 -3.421875 24.929688 -1.65625 24.609375 0 L 20 0 C 20.425781 -2.0625 20.875 -4.289062 21.34375 -6.6875 C 21.820312 -9.082031 22.265625 -11.503906 22.671875 -13.953125 C 22.140625 -13.128906 21.550781 -12.207031 20.90625 -11.1875 C 20.257812 -10.164062 19.613281 -9.132812 18.96875 -8.09375 C 18.320312 -7.050781 17.691406 -6.050781 17.078125 -5.09375 C 16.472656 -4.144531 15.945312 -3.335938 15.5 -2.671875 L 12.046875 -2.671875 C 11.941406 -3.273438 11.816406 -4.039062 11.671875 -4.96875 C 11.535156 -5.90625 11.378906 -6.894531 11.203125 -7.9375 C 11.035156 -8.976562 10.859375 -10.03125 10.671875 -11.09375 C 10.492188 -12.15625 10.328125 -13.109375 10.171875 -13.953125 C 9.378906 -11.503906 8.660156 -9.082031 8.015625 -6.6875 C 7.378906 -4.289062 6.789062 -2.0625 6.25 0 L 1.671875 0 C 2.128906 -1.65625 2.632812 -3.421875 3.1875 -5.296875 C 3.75 -7.179688 4.328125 -9.0625 4.921875 -10.9375 C 5.523438 -12.8125 6.117188 -14.617188 6.703125 -16.359375 C 7.296875 -18.097656 7.851562 -19.65625 8.375 -21.03125 Z M 12.625 -21.03125 "/></g></g></g><g fill="#737373" fill-opacity="1"><g transform="translate(219.373074, 20.620628)"><g><path d="M -0.5 -5.515625 L -0.015625 -5.890625 C 0.429688 -6.242188 0.695312 -6.597656 0.78125 -6.953125 C 0.875 -7.304688 0.789062 -7.648438 0.53125 -7.984375 C 0.257812 -8.335938 -0.0351562 -8.523438 -0.359375 -8.546875 C -0.679688 -8.566406 -1.039062 -8.421875 -1.4375 -8.109375 L -2.109375 -7.59375 Z M 1.96875 -9.21875 C 2.550781 -8.46875 2.757812 -7.710938 2.59375 -6.953125 C 2.4375 -6.191406 1.925781 -5.472656 1.0625 -4.796875 L 0.4375 -4.3125 L 2.359375 -1.828125 L 0.875 -0.6875 L -4.53125 -7.65625 L -2.3125 -9.375 C -1.457031 -10.03125 -0.671875 -10.347656 0.046875 -10.328125 C 0.765625 -10.304688 1.40625 -9.9375 1.96875 -9.21875 Z M 1.96875 -9.21875 "/></g></g></g><g fill="#737373" fill-opacity="1"><g transform="translate(224.992554, 16.423838)"><g/></g></g><g fill="#737373" fill-opacity="1"><g transform="translate(227.098208, 15.030029)"><g><path d="M 4.96875 -1.71875 L 4.328125 -2.46875 L 4.28125 -2.453125 C 4.113281 -1.972656 3.898438 -1.609375 3.640625 -1.359375 C 3.378906 -1.109375 3.003906 -0.894531 2.515625 -0.71875 C 1.898438 -0.507812 1.351562 -0.519531 0.875 -0.75 C 0.394531 -0.988281 0.046875 -1.429688 -0.171875 -2.078125 C -0.410156 -2.753906 -0.347656 -3.332031 0.015625 -3.8125 C 0.378906 -4.300781 1.035156 -4.722656 1.984375 -5.078125 L 3.078125 -5.5 L 2.984375 -5.78125 C 2.765625 -6.425781 2.320312 -6.632812 1.65625 -6.40625 C 1.144531 -6.226562 0.597656 -5.867188 0.015625 -5.328125 L -0.96875 -6.3125 C -0.363281 -6.945312 0.382812 -7.421875 1.28125 -7.734375 C 2.132812 -8.023438 2.851562 -8.0625 3.4375 -7.84375 C 4.019531 -7.625 4.441406 -7.132812 4.703125 -6.375 L 6.171875 -2.125 Z M 3.4375 -4.484375 L 2.765625 -4.25 C 2.265625 -4.050781 1.921875 -3.820312 1.734375 -3.5625 C 1.546875 -3.3125 1.507812 -3.015625 1.625 -2.671875 C 1.800781 -2.179688 2.164062 -2.035156 2.71875 -2.234375 C 3.125 -2.367188 3.40625 -2.59375 3.5625 -2.90625 C 3.726562 -3.226562 3.742188 -3.582031 3.609375 -3.96875 Z M 3.4375 -4.484375 "/></g></g></g><g fill="#737373" fill-opacity="1"><g transform="translate(233.505377, 12.939362)"><g/></g></g><g fill="#737373" fill-opacity="1"><g transform="translate(236.200097, 12.432892)"><g><path d="M 2.8125 -0.1875 L 0.96875 -0.0625 L 0.359375 -9.4375 L 2.203125 -9.5625 Z M 2.8125 -0.1875 "/></g></g></g><g fill="#737373" fill-opacity="1"><g transform="translate(239.492122, 12.209353)"><g/></g></g><g fill="#737373" fill-opacity="1"><g transform="translate(242.232839, 12.279572)"><g><path d="M 2.109375 -8.265625 C 2.203125 -8.867188 2.582031 -9.117188 3.25 -9.015625 C 3.90625 -8.921875 4.1875 -8.570312 4.09375 -7.96875 C 4.050781 -7.6875 3.9375 -7.476562 3.75 -7.34375 C 3.5625 -7.21875 3.304688 -7.175781 2.984375 -7.21875 C 2.316406 -7.320312 2.023438 -7.671875 2.109375 -8.265625 Z M 2.78125 0.40625 L 0.953125 0.140625 L 1.9375 -6.53125 L 3.765625 -6.265625 Z M 2.78125 0.40625 "/></g></g></g><g fill="#737373" fill-opacity="1"><g transform="translate(245.498858, 12.751163)"><g/></g></g><g fill="#737373" fill-opacity="1"><g transform="translate(247.966305, 13.102088)"><g><path d="M 6.546875 2.953125 L 4.890625 2.203125 L 6.515625 -1.390625 C 6.710938 -1.835938 6.78125 -2.207031 6.71875 -2.5 C 6.65625 -2.789062 6.453125 -3.015625 6.109375 -3.171875 C 5.640625 -3.378906 5.226562 -3.375 4.875 -3.15625 C 4.53125 -2.9375 4.191406 -2.460938 3.859375 -1.734375 L 2.5625 1.15625 L 0.890625 0.390625 L 3.65625 -5.765625 L 4.9375 -5.1875 L 4.8125 -4.296875 L 4.90625 -4.265625 C 5.226562 -4.460938 5.585938 -4.5625 5.984375 -4.5625 C 6.378906 -4.570312 6.785156 -4.484375 7.203125 -4.296875 C 7.910156 -3.972656 8.359375 -3.53125 8.546875 -2.96875 C 8.742188 -2.414062 8.679688 -1.78125 8.359375 -1.0625 Z M 6.546875 2.953125 "/></g></g></g><g fill="#737373" fill-opacity="1"><g transform="translate(254.608338, 16.253917)"><g/></g></g><g fill="#737373" fill-opacity="1"><g transform="translate(256.81575, 17.441853)"><g><path d="M 2.15625 2.234375 C 1.570312 1.679688 1.332031 1.023438 1.4375 0.265625 C 1.539062 -0.484375 1.96875 -1.253906 2.71875 -2.046875 C 3.488281 -2.835938 4.253906 -3.296875 5.015625 -3.421875 C 5.773438 -3.554688 6.445312 -3.347656 7.03125 -2.796875 C 7.644531 -2.210938 7.882812 -1.53125 7.75 -0.75 L 7.796875 -0.703125 C 8.066406 -1.128906 8.34375 -1.484375 8.625 -1.765625 L 10.109375 -3.328125 L 11.453125 -2.0625 L 4.96875 4.734375 L 3.953125 3.765625 L 4.296875 2.875 L 4.234375 2.828125 C 3.460938 3.023438 2.769531 2.828125 2.15625 2.234375 Z M 3.640625 1.625 C 3.972656 1.945312 4.316406 2.082031 4.671875 2.03125 C 5.023438 1.976562 5.429688 1.722656 5.890625 1.265625 L 6.03125 1.125 C 6.53125 0.59375 6.804688 0.140625 6.859375 -0.234375 C 6.910156 -0.617188 6.753906 -0.984375 6.390625 -1.328125 C 6.097656 -1.609375 5.75 -1.695312 5.34375 -1.59375 C 4.9375 -1.5 4.507812 -1.21875 4.0625 -0.75 C 3.601562 -0.269531 3.335938 0.164062 3.265625 0.5625 C 3.203125 0.96875 3.328125 1.320312 3.640625 1.625 Z M 3.640625 1.625 "/></g></g></g><g fill="#737373" fill-opacity="1"><g transform="translate(261.842423, 22.415283)"><g/></g></g><g fill="#737373" fill-opacity="1"><g transform="translate(263.509602, 24.446313)"><g><path d="M 8.3125 0.796875 C 8.425781 1.015625 8.507812 1.207031 8.5625 1.375 L 7 2.078125 C 6.945312 1.921875 6.875 1.75 6.78125 1.5625 C 6.488281 1.050781 6.132812 0.726562 5.71875 0.59375 C 5.300781 0.457031 4.851562 0.519531 4.375 0.78125 L 1.375 2.453125 L 0.46875 0.84375 L 6.359375 -2.4375 L 7.046875 -1.21875 L 6.1875 -0.4375 L 6.234375 -0.359375 C 6.660156 -0.367188 7.0625 -0.269531 7.4375 -0.0625 C 7.8125 0.144531 8.101562 0.429688 8.3125 0.796875 Z M 8.3125 0.796875 "/></g></g></g><g fill="#737373" fill-opacity="1"><g transform="translate(265.91759, 28.845178)"><g/></g></g><g fill="#737373" fill-opacity="1"><g transform="translate(267.058938, 31.086579)"><g><path d="M 3.828125 1.6875 C 3.179688 1.820312 2.707031 2.03125 2.40625 2.3125 C 2.113281 2.601562 2.019531 2.988281 2.125 3.46875 C 2.226562 3.945312 2.46875 4.253906 2.84375 4.390625 C 3.226562 4.535156 3.75 4.539062 4.40625 4.40625 C 5.0625 4.257812 5.523438 4.046875 5.796875 3.765625 C 6.078125 3.484375 6.164062 3.097656 6.0625 2.609375 C 5.957031 2.128906 5.722656 1.816406 5.359375 1.671875 C 4.992188 1.535156 4.484375 1.539062 3.828125 1.6875 Z M 4.796875 6.234375 C 3.722656 6.460938 2.820312 6.359375 2.09375 5.921875 C 1.363281 5.484375 0.890625 4.765625 0.671875 3.765625 C 0.535156 3.128906 0.554688 2.535156 0.734375 1.984375 C 0.910156 1.441406 1.234375 0.984375 1.703125 0.609375 C 2.171875 0.242188 2.75 -0.0078125 3.4375 -0.15625 C 4.519531 -0.394531 5.414062 -0.296875 6.125 0.140625 C 6.84375 0.578125 7.304688 1.304688 7.515625 2.328125 C 7.648438 2.953125 7.628906 3.535156 7.453125 4.078125 C 7.285156 4.617188 6.972656 5.070312 6.515625 5.4375 C 6.066406 5.8125 5.492188 6.078125 4.796875 6.234375 Z M 4.796875 6.234375 "/></g></g></g><g fill="#737373" fill-opacity="1"><g transform="translate(268.386928, 37.871608)"><g/></g></g><g fill="#737373" fill-opacity="1"><g transform="translate(269.122636, 40.112554)"><g><path d="M -1.296875 6.875 L -0.953125 5.078125 L 2.921875 5.8125 C 3.398438 5.894531 3.773438 5.878906 4.046875 5.765625 C 4.316406 5.648438 4.484375 5.421875 4.546875 5.078125 C 4.628906 4.617188 4.519531 4.253906 4.21875 3.984375 C 3.914062 3.710938 3.378906 3.5 2.609375 3.34375 L -0.515625 2.765625 L -0.171875 0.953125 L 6.46875 2.203125 L 6.203125 3.578125 L 5.3125 3.671875 L 5.296875 3.765625 C 5.554688 4.003906 5.738281 4.304688 5.84375 4.671875 C 5.957031 5.035156 5.972656 5.4375 5.890625 5.875 C 5.703125 6.863281 5.253906 7.476562 4.546875 7.71875 L 4.53125 7.859375 C 4.789062 8.097656 4.972656 8.40625 5.078125 8.78125 C 5.179688 9.15625 5.191406 9.5625 5.109375 10 C 4.960938 10.75 4.660156 11.28125 4.203125 11.59375 C 3.753906 11.914062 3.101562 12 2.25 11.84375 L -2.078125 11.03125 L -1.734375 9.203125 L 2.140625 9.9375 C 2.617188 10.019531 2.992188 10.003906 3.265625 9.890625 C 3.535156 9.773438 3.703125 9.550781 3.765625 9.21875 C 3.847656 8.769531 3.75 8.398438 3.46875 8.109375 C 3.195312 7.828125 2.71875 7.625 2.03125 7.5 Z M -1.296875 6.875 "/></g></g></g><g fill="#737373" fill-opacity="1"><g transform="translate(266.686834, 50.922954)"><g/></g></g><g fill="#737373" fill-opacity="1"><g transform="translate(265.858817, 53.318373)"><g><path d="M 2.609375 6.1875 C 2.816406 5.851562 2.878906 5.53125 2.796875 5.21875 C 2.710938 4.90625 2.488281 4.609375 2.125 4.328125 L 0.71875 6.5 C 1.101562 6.738281 1.457031 6.828125 1.78125 6.765625 C 2.113281 6.703125 2.390625 6.507812 2.609375 6.1875 Z M -2.296875 3.296875 C -1.703125 2.390625 -0.988281 1.84375 -0.15625 1.65625 C 0.675781 1.46875 1.554688 1.675781 2.484375 2.28125 C 3.421875 2.894531 3.992188 3.609375 4.203125 4.421875 C 4.421875 5.234375 4.257812 6.054688 3.71875 6.890625 C 3.195312 7.679688 2.566406 8.148438 1.828125 8.296875 C 1.085938 8.453125 0.3125 8.269531 -0.5 7.75 L -1.234375 7.265625 L 1.125 3.625 C 0.664062 3.351562 0.238281 3.257812 -0.15625 3.34375 C -0.5625 3.425781 -0.90625 3.6875 -1.1875 4.125 C -1.414062 4.46875 -1.59375 4.8125 -1.71875 5.15625 C -1.84375 5.5 -1.929688 5.890625 -1.984375 6.328125 L -3.1875 5.5625 C -3.144531 5.195312 -3.054688 4.835938 -2.921875 4.484375 C -2.796875 4.140625 -2.585938 3.742188 -2.296875 3.296875 Z M -2.296875 3.296875 "/></g></g></g><g clip-path="url(#id1)"><path fill="#737373" d="M 229.769531 61.496094 L 35.175781 61.496094 L 35.175781 59.269531 L 229.769531 59.269531 L 229.769531 61.496094 " fill-opacity="1" fill-rule="nonzero"/></g><g clip-path="url(#id2)"><path fill="#dd1e1e" d="M 229.769531 60.46875 L 35.175781 60.46875 L 35.175781 58.246094 L 229.769531 58.246094 L 229.769531 60.46875 " fill-opacity="1" fill-rule="nonzero"/></g></svg>